<?xml version="1.0" encoding="UTF-8"?>
<!DOCTYPE svg PUBLIC "-//W3C//DTD SVG 1.1//EN" "http://www.w3.org/Graphics/SVG/1.1/DTD/svg11.dtd">
<!-- Creator: CorelDRAW -->
<svg xmlns="http://www.w3.org/2000/svg" xml:space="preserve" width="6.82666in" height="6.82666in" style="shape-rendering:geometricPrecision; text-rendering:geometricPrecision; image-rendering:optimizeQuality; fill-rule:evenodd; clip-rule:evenodd"
viewBox="0 0 6.82666 6.82666"
 xmlns:xlink="http://www.w3.org/1999/xlink">
 <defs>
  <style type="text/css">
   <![CDATA[
    .fil2 {fill:none}
    .fil4 {fill:none;fill-rule:nonzero}
    .fil1 {fill:#3949AB}
    .fil0 {fill:#7986CB}
    .fil8 {fill:gray}
    .fil5 {fill:#C0CA33}
    .fil3 {fill:#CCCCCC}
    .fil6 {fill:#D4E157}
    .fil7 {fill:#2D3B48;fill-rule:nonzero}
    .fil10 {fill:#424242;fill-rule:nonzero}
    .fil9 {fill:#9E9D24;fill-rule:nonzero}
   ]]>
  </style>
   <clipPath id="id0">
    <path d="M3.41333 0c1.88513,0 3.41333,1.5282 3.41333,3.41333 0,1.88513 -1.5282,3.41333 -3.41333,3.41333 -1.88513,0 -3.41333,-1.5282 -3.41333,-3.41333 0,-1.88513 1.5282,-3.41333 3.41333,-3.41333z"/>
   </clipPath>
 </defs>
 <g id="Layer_x0020_1">
  <metadata id="CorelCorpID_0Corel-Layer"/>
  <path class="fil0" d="M3.41333 0c1.88513,0 3.41333,1.5282 3.41333,3.41333 0,1.88513 -1.5282,3.41333 -3.41333,3.41333 -1.88513,0 -3.41333,-1.5282 -3.41333,-3.41333 0,-1.88513 1.5282,-3.41333 3.41333,-3.41333z"/>
  <g style="clip-path:url(#id0)">
   <g id="_328325928">
    <g>
     <polygon id="_3305539281" class="fil1" points="2.4687,2.94648 6.25497,6.73275 6.2419,6.72769 6.22891,6.72236 6.21603,6.71678 6.20324,6.71095 6.19056,6.70487 6.17799,6.69853 6.16553,6.69194 6.15319,6.68511 6.14097,6.67802 6.12887,6.67069 6.11691,6.66311 6.10507,6.65528 6.09338,6.6472 6.08183,6.63889 6.07042,6.63033 6.05916,6.62152 6.04806,6.61248 6.03711,6.60319 6.02633,6.59366 6.01572,6.58389 6.00527,6.57389 2.219,2.78762 2.22945,2.79762 2.24006,2.80739 2.25085,2.81692 2.26179,2.8262 2.27289,2.83525 2.28415,2.84406 2.29556,2.85261 2.30711,2.86093 2.31881,2.869 2.33064,2.87683 2.3426,2.88441 2.3547,2.89175 2.36692,2.89883 2.37926,2.90567 2.39172,2.91226 2.40429,2.91859 2.41697,2.92468 2.42976,2.93051 2.44265,2.93609 2.45563,2.94141 "/>
     <polygon id="_330554024" class="fil1" points="2.61066,3.13763 6.39693,6.9239 6.27358,7.00353 2.48731,3.21726 "/>
     <polygon id="_330554528" class="fil1" points="3.53093,3.54515 7.31719,7.33142 8.38324,8.9829 4.59698,5.19663 "/>
     <polygon id="_330554264" class="fil1" points="4.60285,5.19294 8.38912,8.97921 8.38842,8.97967 8.38772,8.98013 8.38701,8.98059 8.3863,8.98105 8.3856,8.98151 8.38489,8.98197 8.38418,8.98243 8.38347,8.98289 4.5972,5.19662 4.59791,5.19616 4.59862,5.1957 4.59933,5.19524 4.60004,5.19478 4.60074,5.19432 4.60145,5.19386 4.60215,5.1934 "/>
     <polygon id="_330554768" class="fil1" points="2.48731,3.21726 6.27358,7.00353 6.26836,7.00671 6.26304,7.0096 6.25764,7.01219 6.25216,7.01448 6.24661,7.01648 6.241,7.0182 6.23535,7.01962 6.22967,7.02076 6.22396,7.02161 6.21823,7.02219 6.2125,7.02248 6.20678,7.0225 6.20106,7.02224 6.19538,7.02172 6.18974,7.02091 6.18413,7.01985 6.17859,7.01852 6.17312,7.01692 6.16772,7.01506 6.16241,7.01294 6.1572,7.01057 6.1521,7.00794 6.14712,7.00506 6.14227,7.00193 6.13756,6.99855 6.13299,6.99493 6.12859,6.99106 2.34232,3.20479 2.34672,3.20866 2.35129,3.21228 2.356,3.21566 2.36085,3.21879 2.36583,3.22167 2.37093,3.2243 2.37615,3.22667 2.38145,3.22879 2.38685,3.23065 2.39233,3.23224 2.39787,3.23357 2.40347,3.23464 2.40911,3.23544 2.4148,3.23597 2.42051,3.23623 2.42623,3.23621 2.43196,3.23592 2.43769,3.23534 2.4434,3.23449 2.44909,3.23335 2.45474,3.23193 2.46034,3.23021 2.46589,3.22821 2.47137,3.22592 2.47678,3.22333 2.48209,3.22044 "/>
     <polygon id="_330554936" class="fil1" points="3.26493,1.7897 7.0512,5.57598 7.07469,5.60389 7.09696,5.63322 7.11793,5.66398 7.12597,5.67672 7.13371,5.68956 7.14115,5.70249 7.1483,5.71552 7.15515,5.72864 7.16172,5.74185 7.16798,5.75514 7.17396,5.76851 7.17965,5.78195 7.18504,5.79546 7.19015,5.80904 7.19496,5.82267 7.19949,5.83637 7.20373,5.85012 7.20769,5.86392 7.21136,5.87776 7.21475,5.89164 7.21786,5.90556 7.22068,5.91952 7.22322,5.9335 7.22548,5.9475 7.22746,5.96153 7.22917,5.97557 7.23059,5.98963 7.23174,6.00369 7.23261,6.01776 7.23321,6.03182 7.23354,6.04588 7.23359,6.05993 7.23337,6.07397 7.23287,6.088 7.23211,6.102 3.44584,2.31573 3.4466,2.30172 3.4471,2.2877 3.44732,2.27366 3.44727,2.25961 3.44694,2.24555 3.44635,2.23148 3.44548,2.21742 3.44433,2.20335 3.4429,2.1893 3.4412,2.17526 3.43922,2.16123 3.43695,2.14722 3.43441,2.13324 3.43159,2.11929 3.42848,2.10537 3.42509,2.09149 3.42142,2.07765 3.41746,2.06385 3.41322,2.0501 3.40869,2.0364 3.40388,2.02276 3.39877,2.00919 3.39338,1.99568 3.38769,1.98224 3.38172,1.96887 3.37545,1.95558 3.36889,1.94237 3.36203,1.92925 3.35489,1.91622 3.34744,1.90328 3.3397,1.89044 3.33166,1.87771 3.31069,1.84695 3.28843,1.81761 "/>
     <polygon id="_330554312" class="fil1" points="3.70935,2.26548 7.49562,6.05176 7.49948,6.05634 7.50314,6.06116 7.50658,6.06621 3.72031,2.27994 3.71687,2.27489 3.71321,2.27007 "/>
     <polygon id="_330554960" class="fil1" points="3.72031,2.27994 7.50658,6.06621 7.50977,6.07143 7.51265,6.07675 7.51524,6.08215 7.51754,6.08763 7.51954,6.09318 7.52125,6.09879 7.52268,6.10444 7.52381,6.11012 7.52467,6.11583 7.52524,6.12156 7.52554,6.12729 7.52556,6.13302 7.5253,6.13872 7.52477,6.14441 7.52397,6.15006 7.5229,6.15565 7.52157,6.1612 7.51997,6.16667 7.51811,6.17207 7.516,6.17738 7.51363,6.18259 7.511,6.18769 7.50812,6.19267 7.50498,6.19752 7.50161,6.20224 7.49798,6.2068 7.49411,6.2112 7.49,6.21543 7.48566,6.21948 7.48107,6.22334 7.47625,6.227 7.4712,6.23044 3.68493,2.44417 3.68998,2.44073 3.6948,2.43707 3.69939,2.43321 3.70374,2.42916 3.70785,2.42493 3.71172,2.42053 3.71534,2.41596 3.71872,2.41125 3.72185,2.4064 3.72473,2.40142 3.72736,2.39631 3.72973,2.39111 3.73185,2.3858 3.7337,2.3804 3.7353,2.37493 3.73663,2.36938 3.7377,2.36378 3.7385,2.35814 3.73903,2.35245 3.73929,2.34674 3.73927,2.34102 3.73898,2.33529 3.7384,2.32956 3.73755,2.32385 3.73641,2.31817 3.73498,2.31252 3.73327,2.30691 3.73127,2.30136 3.72898,2.29588 3.72639,2.29048 3.7235,2.28516 "/>
     <polygon id="_330554696" class="fil1" points="3.54918,2.50231 7.33545,6.28858 7.13766,6.41625 3.35139,2.62998 "/>
     <polygon id="_330554504" class="fil1" points="3.68493,2.44417 7.4712,6.23044 7.34783,6.31009 3.56156,2.52381 "/>
     <polygon id="_330555512" class="fil1" points="3.35139,2.62998 7.13766,6.41625 7.13584,6.41942 7.134,6.42257 7.13214,6.42572 7.13026,6.42887 7.12837,6.432 7.12646,6.43512 7.12454,6.43824 7.1226,6.44135 7.12064,6.44444 7.11867,6.44753 7.11668,6.45061 7.11467,6.45369 7.11265,6.45674 7.11061,6.4598 7.10855,6.46284 7.10648,6.46588 3.32021,2.67961 3.32228,2.67657 3.32434,2.67353 3.32638,2.67047 3.32841,2.66741 3.33041,2.66434 3.3324,2.66126 3.33437,2.65817 3.33633,2.65507 3.33828,2.65197 3.3402,2.64885 3.34211,2.64573 3.344,2.64259 3.34587,2.63945 3.34773,2.6363 3.34957,2.63315 "/>
     <polygon id="_330555392" class="fil1" points="3.32021,2.67961 7.10648,6.46588 7.1015,6.47304 7.09643,6.48014 7.09127,6.48719 7.08602,6.49418 7.08067,6.50112 7.07524,6.508 7.06971,6.51482 7.06409,6.52158 7.05838,6.52828 7.05258,6.53493 7.04669,6.54151 7.04071,6.54802 7.03465,6.55448 7.02849,6.56087 7.02224,6.56719 7.0159,6.57345 7.00948,6.57964 7.00296,6.58576 6.99636,6.59181 6.98967,6.59779 6.98289,6.6037 6.97602,6.60954 6.96907,6.6153 6.96202,6.62099 6.95489,6.62661 6.94768,6.63215 6.94037,6.63761 6.93298,6.64299 6.92551,6.6483 6.91794,6.65352 6.9103,6.65866 6.90256,6.66372 6.90111,6.66466 6.89966,6.66559 6.89821,6.66651 6.89676,6.66743 6.8953,6.66835 6.89385,6.66926 6.89239,6.67017 6.89093,6.67107 3.10467,2.8848 3.10612,2.8839 3.10758,2.88299 3.10904,2.88207 3.11049,2.88116 3.11194,2.88024 3.11339,2.87931 3.11484,2.87839 3.11629,2.87745 3.12403,2.87239 3.13168,2.86725 3.13924,2.86202 3.14672,2.85672 3.15411,2.85133 3.16141,2.84587 3.16863,2.84033 3.17576,2.83472 3.1828,2.82903 3.18975,2.82327 3.19662,2.81743 3.2034,2.81152 3.21009,2.80554 3.21669,2.79949 3.22321,2.79337 3.22963,2.78718 3.23597,2.78092 3.24222,2.77459 3.24838,2.76821 3.25444,2.76175 3.26043,2.75524 3.26631,2.74866 3.27211,2.74201 3.27782,2.73531 3.28344,2.72855 3.28897,2.72172 3.2944,2.71485 3.29975,2.70791 3.305,2.70091 3.31017,2.69387 3.31524,2.68676 "/>
     <polygon id="_330555440" class="fil1" points="3.10467,2.8848 6.89093,6.67107 7.02046,6.87174 3.2342,3.08547 "/>
     <polygon id="_330555560" class="fil1" points="3.2342,3.08547 7.02046,6.87174 7.13139,7.04358 3.34512,3.25731 "/>
     <polygon id="_330555272" class="fil1" points="3.34512,3.25731 7.13139,7.04358 7.29088,7.29065 3.50461,3.50438 "/>
     <polygon id="_330555752" class="fil1" points="3.50461,3.50438 7.29088,7.29065 7.31719,7.33142 3.53093,3.54515 "/>
     <polygon id="_330555344" class="fil1" points="4.60854,5.18917 8.39481,8.97544 8.39486,8.97554 4.60859,5.18926 "/>
     <polygon id="_330555008" class="fil1" points="4.59698,5.19663 8.38324,8.9829 8.35939,8.99714 8.3359,9.00999 8.31276,9.02146 8.28997,9.03159 8.26752,9.04038 8.24541,9.04785 8.22364,9.05402 8.2022,9.05892 8.18108,9.06256 8.16028,9.06496 8.1398,9.06613 8.11964,9.06611 8.09978,9.06489 8.08022,9.06252 8.06097,9.059 8.042,9.05435 8.02333,9.04859 8.00494,9.04174 7.98684,9.03382 7.96901,9.02485 7.95146,9.01484 7.93417,9.00382 7.91714,8.99181 7.90037,8.97882 7.88386,8.96487 7.86759,8.94998 4.08133,5.16371 4.09759,5.1786 4.11411,5.19255 4.13087,5.20554 4.1479,5.21755 4.16519,5.22857 4.18274,5.23857 4.20057,5.24755 4.21868,5.25546 4.23707,5.26231 4.25574,5.26807 4.2747,5.27272 4.29396,5.27624 4.31351,5.27862 4.33337,5.27983 4.35354,5.27986 4.37402,5.27869 4.39481,5.27629 4.41593,5.27265 4.43737,5.26775 4.45915,5.26158 4.48126,5.25411 4.5037,5.24531 4.5265,5.23519 4.54963,5.22372 4.57313,5.21087 "/>
     <polygon id="_330555104" class="fil1" points="4.60859,5.18926 8.39486,8.97554 8.39415,8.97599 8.39344,8.97645 8.39273,8.97691 8.39202,8.97736 8.39131,8.97782 8.39059,8.97827 8.38989,8.97872 8.38918,8.97917 4.60291,5.1929 4.60362,5.19245 4.60433,5.192 4.60504,5.19155 4.60575,5.19109 4.60646,5.19064 4.60717,5.19018 4.60788,5.18972 "/>
     <polygon id="_330555248" class="fil1" points="4.5972,5.19662 8.38347,8.98289 8.38331,8.98299 4.59704,5.19672 "/>
     <polygon id="_330556304" class="fil1" points="4.60291,5.1929 8.38918,8.97917 8.38916,8.97918 8.38915,8.97919 8.38913,8.9792 8.38912,8.97921 4.60285,5.19294 4.60287,5.19293 4.60288,5.19292 4.60289,5.19291 "/>
    </g>
    <path id="_328325544" class="fil1" d="M4.60854 5.18917l5.51181e-005 9.44882e-005c-0.00189764,0.00122441 -0.00379528,0.00243701 -0.00568504,0.0036378 -1.9685e-005,1.1811e-005 -3.93701e-005,2.3622e-005 -5.51181e-005,3.54331e-005 0.00190945,-0.00125591 0.00380315,-0.00251181 0.00568504,-0.00376772zm-0.011563 0.00745669c0.00195669,-0.00121654 0.00391339,-0.00244488 0.00587795,-0.00368898 -0.00187402,0.00122835 -0.00375591,0.00245669 -0.00565354,0.0036811l-0.000161417 0.000102362 -6.29921e-005 -9.44882e-005zm-2.26506 -3.53429c0.335543,-0.216598 0.783146,-0.120173 0.999744,0.21537 0.0873268,0.135283 0.123772,0.288787 0.114177,0.43802l0.110244 -0.0711654c0.0551181,-0.0355787 0.12865,-0.0197402 0.164232,0.035378 0.0355787,0.0551181 0.0197362,0.12865 -0.0353819,0.164232l-0.123374 0.0796417 -0.012378 -0.0215079 -0.197787 0.127673c-0.00968504,0.0169094 -0.0200827,0.0334646 -0.0311811,0.049626 -0.0526102,0.0766142 -0.120957,0.144291 -0.203921,0.197846 -0.0038622,0.00249213 -0.00773622,0.00494094 -0.011626,0.00735039l0.129531 0.200665 0.110925 0.171843 0.159488 0.247071 0.026315 0.0407638 1.06605 1.65148c-0.256319,0.15939 -0.450906,0.0781024 -0.60824,-0.140902l-1.37807 -1.91809 -0.12335 0.079626c-0.0551181,0.0355787 -0.128654,0.0197362 -0.164232,-0.0353819 -0.0355787,-0.0551181 -0.0197362,-0.12865 0.0353819,-0.164228l0.110244 -0.0711654c-0.139949,-0.0527008 -0.264827,-0.149114 -0.352157,-0.284402 -0.216598,-0.335539 -0.120173,-0.783146 0.21537,-0.99974z"/>
   </g>
  </g>
  <path class="fil2" d="M3.41333 0c1.88513,0 3.41333,1.5282 3.41333,3.41333 0,1.88513 -1.5282,3.41333 -3.41333,3.41333 -1.88513,0 -3.41333,-1.5282 -3.41333,-3.41333 0,-1.88513 1.5282,-3.41333 3.41333,-3.41333z"/>
  <circle class="fil3" transform="matrix(0.920338 -0.594091 0.594091 0.920338 2.72411 2.26989)" r="0.660146"/>
  <line class="fil4" x1="4.6776" y1="5.26139" x2="4.67761" y2= "5.26139" />
  <path class="fil5" d="M3.06113 2.81735l0.00302362 -0.00195276 0.485031 -0.313094 1.19053 2.06866c0.136516,0.237197 0.125764,0.452398 -0.142508,0.625654l-0.00015748 0.000102362 -3.93701e-006 0 -1.53591 -2.37937z"/>
  <path class="fil6" d="M2.59619 3.11748l0.476496 -0.307587 1.53592 2.37937 -3.93701e-006 3.93701e-006c-0.262071,0.169169 -0.460154,0.0887598 -0.619858,-0.133539l-1.39255 -1.93824z"/>
  <path class="fil7" d="M2.35846 3.01765c-0.0551181,0.0355787 -0.0709606,0.10911 -0.0353819,0.164228 0.0355787,0.0551181 0.109114,0.0709606 0.164232,0.0353819l1.19762 -0.773083c0.0551181,-0.0355827 0.0709606,-0.109114 0.0353819,-0.164232 -0.0355827,-0.0551181 -0.109114,-0.0709567 -0.164232,-0.035378l-1.19762 0.773083z"/>
  <circle class="fil8" transform="matrix(0.747321 -0.482406 0.482406 0.747321 2.82298 2.54714)" r="0.0533346"/>
  <circle class="fil8" transform="matrix(0.747321 -0.482406 0.482406 0.747321 2.70992 2.62012)" r="0.0533346"/>
  <circle class="fil8" transform="matrix(0.747321 -0.482406 0.482406 0.747321 2.59686 2.6931)" r="0.0533346"/>
  <circle class="fil8" transform="matrix(0.747321 -0.482406 0.482406 0.747321 3.16217 2.32819)" r="0.0533346"/>
  <circle class="fil8" transform="matrix(0.747321 -0.482406 0.482406 0.747321 3.04911 2.40117)" r="0.0533346"/>
  <circle class="fil8" transform="matrix(0.747321 -0.482406 0.482406 0.747321 2.93604 2.47415)" r="0.0533346"/>
  <circle class="fil8" transform="matrix(0.747321 -0.482406 0.482406 0.747321 2.57483 2.53322)" r="0.0533346"/>
  <circle class="fil8" transform="matrix(0.747321 -0.482406 0.482406 0.747321 2.46215 2.60595)" r="0.0533346"/>
  <circle class="fil8" transform="matrix(0.747321 -0.482406 0.482406 0.747321 2.34947 2.67869)" r="0.0533346"/>
  <circle class="fil8" transform="matrix(0.747321 -0.482406 0.482406 0.747321 2.91286 2.31502)" r="0.0533346"/>
  <circle class="fil8" transform="matrix(0.747321 -0.482406 0.482406 0.747321 2.80019 2.38775)" r="0.0533346"/>
  <circle class="fil8" transform="matrix(0.747321 -0.482406 0.482406 0.747321 2.68751 2.46049)" r="0.0533346"/>
  <circle class="fil8" transform="matrix(0.747321 -0.482406 0.482406 0.747321 3.13821 2.16955)" r="0.0533346"/>
  <circle class="fil8" transform="matrix(0.747321 -0.482406 0.482406 0.747321 3.02554 2.24228)" r="0.0533346"/>
  <circle class="fil8" transform="matrix(0.747321 -0.482406 0.482406 0.747321 3.25089 2.09681)" r="0.0533346"/>
  <circle class="fil8" transform="matrix(0.747321 -0.482406 0.482406 0.747321 2.48926 2.40066)" r="0.0533346"/>
  <circle class="fil8" transform="matrix(0.747321 -0.482406 0.482406 0.747321 2.37658 2.47339)" r="0.0533346"/>
  <circle class="fil8" transform="matrix(0.747321 -0.482406 0.482406 0.747321 2.2639 2.54613)" r="0.0533346"/>
  <circle class="fil8" transform="matrix(0.747321 -0.482406 0.482406 0.747321 2.82729 2.18245)" r="0.0533346"/>
  <circle class="fil8" transform="matrix(0.747321 -0.482406 0.482406 0.747321 2.71462 2.25519)" r="0.0533346"/>
  <circle class="fil8" transform="matrix(0.747321 -0.482406 0.482406 0.747321 2.60194 2.32792)" r="0.0533346"/>
  <circle class="fil8" transform="matrix(0.747321 -0.482406 0.482406 0.747321 3.05264 2.03699)" r="0.0533346"/>
  <circle class="fil8" transform="matrix(0.747321 -0.482406 0.482406 0.747321 2.93997 2.10972)" r="0.0533346"/>
  <circle class="fil8" transform="matrix(0.747321 -0.482406 0.482406 0.747321 3.16532 1.96425)" r="0.0533346"/>
  <circle class="fil8" transform="matrix(0.747321 -0.482406 0.482406 0.747321 2.40369 2.2681)" r="0.0533346"/>
  <circle class="fil8" transform="matrix(0.747321 -0.482406 0.482406 0.747321 2.29102 2.34084)" r="0.0533346"/>
  <circle class="fil8" transform="matrix(0.747321 -0.482406 0.482406 0.747321 2.17834 2.41357)" r="0.0533346"/>
  <circle class="fil8" transform="matrix(0.747321 -0.482406 0.482406 0.747321 2.74172 2.0499)" r="0.0533346"/>
  <circle class="fil8" transform="matrix(0.747321 -0.482406 0.482406 0.747321 2.62905 2.12263)" r="0.0533346"/>
  <circle class="fil8" transform="matrix(0.747321 -0.482406 0.482406 0.747321 2.51637 2.19537)" r="0.0533346"/>
  <circle class="fil8" transform="matrix(0.747321 -0.482406 0.482406 0.747321 2.96708 1.90443)" r="0.0533346"/>
  <circle class="fil8" transform="matrix(0.747321 -0.482406 0.482406 0.747321 2.8544 1.97716)" r="0.0533346"/>
  <circle class="fil8" transform="matrix(0.747321 -0.482406 0.482406 0.747321 3.07976 1.83169)" r="0.0533346"/>
  <circle class="fil8" transform="matrix(0.747321 -0.482406 0.482406 0.747321 2.48347 2.02118)" r="0.0533346"/>
  <circle class="fil8" transform="matrix(0.747321 -0.482406 0.482406 0.747321 2.37041 2.09417)" r="0.0533346"/>
  <circle class="fil8" transform="matrix(0.747321 -0.482406 0.482406 0.747321 2.25735 2.16715)" r="0.0533346"/>
  <circle class="fil8" transform="matrix(0.747321 -0.482406 0.482406 0.747321 2.82266 1.80223)" r="0.0533346"/>
  <circle class="fil8" transform="matrix(0.747321 -0.482406 0.482406 0.747321 2.7096 1.87522)" r="0.0533346"/>
  <circle class="fil8" transform="matrix(0.747321 -0.482406 0.482406 0.747321 2.59653 1.9482)" r="0.0533346"/>
  <circle class="fil8" transform="matrix(0.747321 -0.482406 0.482406 0.747321 2.39277 1.88067)" r="0.0533346"/>
  <circle class="fil8" transform="matrix(0.747321 -0.482406 0.482406 0.747321 2.27971 1.95365)" r="0.0533346"/>
  <circle class="fil8" transform="matrix(0.747321 -0.482406 0.482406 0.747321 2.61889 1.7347)" r="0.0533346"/>
  <circle class="fil8" transform="matrix(0.747321 -0.482406 0.482406 0.747321 2.50583 1.80769)" r="0.0533346"/>
  <path class="fil9" d="M3.3735 3.13683c-0.0355787,-0.0551181 -0.0967165,-0.0789567 -0.136547,-0.053248 -0.0398268,0.0257126 -0.0432756,0.0912441 -0.00769685,0.146362l0.167976 0.260213c0.0355787,0.0551181 0.0967165,0.0789606 0.136547,0.053252 0.0398268,-0.0257126 0.0432756,-0.0912441 0.00769685,-0.146362l-0.167976 -0.260217z"/>
  <path class="fil10" d="M3.42331 3.28271c-0.0191339,-0.0296457 -0.0529252,-0.0418858 -0.0754646,-0.0273346 -0.0225394,0.0145472 -0.0252992,0.050378 -0.00616142,0.0800236l0.0903465 0.139961c0.0191339,0.0296457 0.0529252,0.0418819 0.0754646,0.0273346 0.0225394,-0.0145512 0.0252992,-0.0503819 0.00616142,-0.0800276l-0.0903465 -0.139957z"/>
 </g>
</svg>
