<?xml version="1.0" encoding="UTF-8"?>
<!DOCTYPE svg PUBLIC "-//W3C//DTD SVG 1.1//EN" "http://www.w3.org/Graphics/SVG/1.1/DTD/svg11.dtd">
<!-- Creator: CorelDRAW -->
<svg xmlns="http://www.w3.org/2000/svg" xml:space="preserve" width="2048px" height="2048px" style="shape-rendering:geometricPrecision; text-rendering:geometricPrecision; image-rendering:optimizeQuality; fill-rule:evenodd; clip-rule:evenodd"
viewBox="0 0 2048 2048"
 xmlns:xlink="http://www.w3.org/1999/xlink">
 <defs>
  <style type="text/css">
   <![CDATA[
    .fil2 {fill:none}
    .fil1 {fill:#78909C}
    .fil0 {fill:#B0BEC5}
    .fil7 {fill:#F57F17}
    .fil5 {fill:#F9A825}
    .fil4 {fill:#D32F2F;fill-rule:nonzero}
    .fil6 {fill:#E53935;fill-rule:nonzero}
    .fil3 {fill:#F57F17;fill-rule:nonzero}
   ]]>
  </style>
   <clipPath id="id0">
    <path d="M1024 0c565.539,0 1024,458.461 1024,1024 0,565.539 -458.461,1024 -1024,1024 -565.539,0 -1024,-458.461 -1024,-1024 0,-565.539 458.461,-1024 1024,-1024z"/>
   </clipPath>
 </defs>
 <g id="Layer_x0020_1">
  <metadata id="CorelCorpID_0Corel-Layer"/>
  <path class="fil0" d="M1024 0c565.539,0 1024,458.461 1024,1024 0,565.539 -458.461,1024 -1024,1024 -565.539,0 -1024,-458.461 -1024,-1024 0,-565.539 458.461,-1024 1024,-1024z"/>
  <g style="clip-path:url(#id0)">
   <g id="_341192752">
    <g>
     <path id="_4558367201" class="fil1" d="M1814.07 1704.27l0 0zm-1135.88 -1135.88l0 0z"/>
     <polygon id="_455837008" class="fil1" points="1430.9,737.689 2566.79,1873.57 2568.94,1876.12 2571.04,1878.73 2573.08,1881.39 2575.05,1884.09 2576.96,1886.85 2578.81,1889.65 2580.58,1892.5 2582.29,1895.39 2583.94,1898.33 2585.51,1901.31 2587.01,1904.33 2588.44,1907.4 2589.8,1910.5 2591.09,1913.64 2592.3,1916.83 2593.43,1920.04 2594.49,1923.3 2595.46,1926.58 2596.36,1929.91 2597.18,1933.26 2597.92,1936.64 2598.57,1940.06 2599.14,1943.5 2599.63,1946.97 2600.03,1950.47 2600.34,1953.99 2600.57,1957.54 2600.7,1961.11 2600.75,1964.71 1464.87,828.825 1464.82,825.231 1464.68,821.659 1464.46,818.11 1464.15,814.587 1463.75,811.088 1463.26,807.617 1462.69,804.174 1462.04,800.76 1461.3,797.376 1460.48,794.023 1459.58,790.701 1458.6,787.414 1457.55,784.16 1456.41,780.943 1455.21,777.762 1453.92,774.619 1452.56,771.516 1451.13,768.451 1449.63,765.427 1448.06,762.446 1446.41,759.507 1444.7,756.614 1442.92,753.765 1441.08,750.963 1439.17,748.209 1437.2,745.503 1435.16,742.847 1433.06,740.242 "/>
     <polygon id="_455837632" class="fil1" points="1464.87,828.825 2600.75,1964.71 2600.74,1965.74 2600.73,1966.77 2600.71,1967.8 2600.68,1968.84 2600.65,1969.87 2600.6,1970.91 2600.55,1971.95 2600.49,1972.99 2600.42,1974.03 2600.35,1975.08 2600.26,1976.12 2600.17,1977.16 2600.07,1978.21 2599.96,1979.26 2599.84,1980.31 2599.72,1981.36 1463.84,845.477 1463.96,844.427 1464.08,843.377 1464.19,842.33 1464.29,841.282 1464.38,840.237 1464.46,839.193 1464.54,838.149 1464.61,837.107 1464.67,836.066 1464.72,835.027 1464.77,833.99 1464.8,832.953 1464.83,831.918 1464.85,830.886 1464.86,829.855 "/>
     <polygon id="_455837728" class="fil1" points="1502.95,880.997 2638.83,2016.88 2644.68,2023.54 2650.33,2030.4 2655.78,2037.44 2661.02,2044.66 2666.06,2052.04 2670.9,2059.59 2675.52,2067.29 2679.93,2075.13 2684.12,2083.12 2688.09,2091.23 2691.85,2099.46 2695.38,2107.81 2698.68,2116.26 2701.75,2124.82 2704.6,2133.46 2707.21,2142.19 2709.58,2150.99 2711.72,2159.86 2713.61,2168.79 2715.26,2177.77 2716.66,2186.79 2717.81,2195.85 2718.71,2204.94 2719.36,2214.05 2719.75,2223.18 2719.88,2232.31 1584,1096.42 1583.87,1087.29 1583.48,1078.17 1582.83,1069.06 1581.93,1059.97 1580.78,1050.91 1579.38,1041.89 1577.73,1032.9 1575.84,1023.98 1573.7,1015.11 1571.33,1006.3 1568.72,997.578 1565.87,988.934 1562.8,980.382 1559.5,971.928 1555.97,963.579 1552.21,955.345 1548.24,947.233 1544.05,939.251 1539.64,931.406 1535.01,923.707 1530.18,916.161 1525.14,908.775 1519.89,901.559 1514.44,894.518 1508.79,887.662 "/>
     <polygon id="_455837416" class="fil1" points="1059.84,590.315 2195.72,1726.2 2197.4,1728.05 2199.03,1729.96 2200.6,1731.9 2202.12,1733.88 2203.58,1735.9 1067.7,600.021 1066.24,598.001 1064.72,596.018 1063.15,594.074 1061.52,592.171 "/>
     <polygon id="_455837752" class="fil1" points="1067.7,600.021 2203.58,1735.9 2204.98,1737.96 2206.34,1740.06 2207.63,1742.19 2208.87,1744.37 2210.04,1746.57 2211.16,1748.81 2212.21,1751.07 2213.19,1753.35 2214.1,1755.65 2214.93,1757.96 2215.7,1760.29 2216.38,1762.63 2216.99,1764.96 2217.51,1767.3 2217.95,1769.64 2218.3,1771.97 1082.42,636.089 1082.07,633.759 1081.63,631.421 1081.11,629.082 1080.5,626.743 1079.82,624.408 1079.05,622.081 1078.22,619.766 1077.31,617.465 1076.33,615.184 1075.28,612.924 1074.16,610.689 1072.99,608.483 1071.75,606.31 1070.45,604.173 1069.1,602.076 "/>
     <polygon id="_455837848" class="fil1" points="1082.42,636.089 2218.3,1771.97 2254.18,2044.78 1118.3,908.897 "/>
     <polygon id="_339490728" class="fil1" points="668.781,556.027 1804.66,1691.91 1806,1693.3 1807.3,1694.73 1808.55,1696.21 1809.76,1697.74 1810.92,1699.31 1812.02,1700.92 1813.08,1702.57 1814.08,1704.27 678.202,568.384 677.199,566.689 676.143,565.035 675.036,563.423 673.88,561.854 672.674,560.33 671.422,558.85 670.124,557.416 "/>
     <polygon id="_339490848" class="fil1" points="619.903,881.151 1755.78,2017.03 1753.22,2035.67 617.339,899.785 "/>
     <polygon id="_339491232" class="fil1" points="961.855,887.048 2097.74,2022.93 2072.6,2078.52 936.716,942.637 "/>
     <polygon id="_339491064" class="fil1" points="1026.92,975.256 2162.8,2111.14 2161.39,2111.12 2159.99,2111.07 2158.59,2110.98 2157.2,2110.86 2155.81,2110.71 2154.44,2110.52 2153.06,2110.3 2151.7,2110.05 2150.34,2109.77 2148.99,2109.45 2147.66,2109.11 2146.33,2108.73 2145.01,2108.33 2143.7,2107.89 2142.4,2107.43 2141.12,2106.93 2139.84,2106.41 2138.58,2105.86 2137.33,2105.28 2136.1,2104.68 2134.88,2104.05 2133.67,2103.39 2132.48,2102.71 2131.3,2102 2130.14,2101.27 2129,2100.51 2127.87,2099.73 2126.76,2098.92 2125.67,2098.1 2124.59,2097.24 2123.54,2096.37 2122.5,2095.47 986.622,959.592 987.657,960.489 988.713,961.361 989.788,962.213 990.881,963.042 991.99,963.848 993.118,964.629 994.262,965.387 995.422,966.12 996.598,966.828 997.79,967.511 998.997,968.168 1000.22,968.799 1001.45,969.402 1002.7,969.98 1003.96,970.529 1005.24,971.051 1006.52,971.545 1007.82,972.009 1009.13,972.444 1010.45,972.85 1011.78,973.226 1013.11,973.57 1014.46,973.886 1015.82,974.168 1017.18,974.42 1018.55,974.639 1019.93,974.826 1021.32,974.979 1022.71,975.1 1024.11,975.186 1025.51,975.238 "/>
     <polygon id="_339490800" class="fil1" points="986.622,959.592 2122.5,2095.47 2121.49,2094.56 2120.49,2093.62 2119.52,2092.66 983.637,956.78 984.613,957.739 985.607,958.677 "/>
     <polygon id="_339490824" class="fil1" points="1064.99,975.256 2200.87,2111.14 2162.8,2111.14 1026.92,975.256 "/>
     <polygon id="_339490896" class="fil1" points="936.716,942.637 2072.6,2078.52 2079,2089.03 2085.44,2100.12 2091.91,2111.77 2098.4,2123.93 2104.9,2136.58 2111.4,2149.66 2117.9,2163.16 2124.39,2177.02 2130.85,2191.21 2137.27,2205.7 2143.66,2220.45 2149.99,2235.43 2156.26,2250.59 2162.47,2265.9 2168.59,2281.32 2174.63,2296.83 2180.57,2312.37 2186.41,2327.91 2192.13,2343.43 2197.72,2358.87 2203.19,2374.21 2208.51,2389.41 2213.68,2404.43 2218.7,2419.23 2223.54,2433.78 2228.2,2448.04 2232.68,2461.97 2236.97,2475.55 2241.04,2488.72 2244.91,2501.46 2248.55,2513.73 2251.95,2525.5 1116.07,1389.61 1112.67,1377.85 1109.03,1365.58 1105.16,1352.84 1101.08,1339.67 1096.8,1326.09 1092.32,1312.15 1087.66,1297.89 1082.82,1283.34 1077.8,1268.54 1072.63,1253.52 1067.31,1238.33 1061.84,1222.99 1056.25,1207.55 1050.53,1192.03 1044.69,1176.49 1038.75,1160.94 1032.71,1145.44 1026.59,1130.02 1020.38,1114.71 1014.11,1099.54 1007.78,1084.57 1001.39,1069.82 994.966,1055.33 988.505,1041.13 982.021,1027.27 975.523,1013.78 969.017,1000.69 962.515,988.052 956.025,975.888 949.555,964.24 943.117,953.144 "/>
     <polygon id="_339490920" class="fil1" points="1085.65,1155.99 2221.53,2291.87 2219.17,2291.76 2216.87,2291.42 2214.65,2290.86 2212.52,2290.11 2210.48,2289.16 2208.56,2288.03 2206.75,2286.74 2205.08,2285.28 1069.2,1149.4 1070.87,1150.85 1072.68,1152.15 1074.6,1153.28 1076.64,1154.23 1078.77,1154.98 1080.99,1155.53 1083.29,1155.87 "/>
     <polygon id="_339491184" class="fil1" points="617.339,899.785 1753.22,2035.67 1753.01,2037.06 1752.77,2038.45 1752.49,2039.82 1752.19,2041.19 1751.85,2042.55 1751.48,2043.89 1751.08,2045.22 1750.65,2046.54 1750.19,2047.85 1749.7,2049.14 1749.18,2050.42 1748.63,2051.69 1748.06,2052.94 1747.45,2054.18 1746.82,2055.4 1746.17,2056.61 1745.49,2057.8 1744.78,2058.97 1744.05,2060.13 1743.29,2061.27 1742.51,2062.4 1741.71,2063.5 1740.88,2064.59 1740.03,2065.66 1739.16,2066.71 1738.27,2067.74 1737.35,2068.75 1736.42,2069.73 1735.46,2070.7 1734.48,2071.65 1733.49,2072.58 1732.48,2073.48 596.595,937.595 597.609,936.693 598.603,935.768 599.579,934.821 600.534,933.852 601.469,932.864 602.384,931.855 603.277,930.825 604.148,929.776 604.999,928.707 605.826,927.621 606.63,926.515 607.41,925.391 608.167,924.25 608.899,923.092 609.605,921.917 610.287,920.726 610.942,919.518 611.572,918.296 612.174,917.058 612.748,915.805 613.296,914.539 613.815,913.259 614.305,911.964 614.765,910.658 615.195,909.337 615.597,908.006 615.967,906.663 616.306,905.309 616.613,903.942 616.888,902.566 617.13,901.181 "/>
     <polygon id="_339491112" class="fil1" points="596.595,937.595 1732.48,2073.48 1731.44,2074.37 1730.38,2075.23 1729.3,2076.08 1728.2,2076.9 1727.09,2077.7 1725.96,2078.47 1724.81,2079.22 1723.65,2079.95 1722.47,2080.65 1721.28,2081.33 1720.07,2081.98 1718.85,2082.61 1717.61,2083.21 1716.37,2083.78 1715.1,2084.32 1713.83,2084.84 1712.55,2085.33 1711.25,2085.79 1709.94,2086.22 1708.63,2086.62 1707.3,2087 1705.96,2087.34 1704.62,2087.65 1703.27,2087.93 1701.9,2088.18 1700.54,2088.4 1699.16,2088.58 1697.78,2088.74 1696.4,2088.85 1695,2088.94 1693.61,2088.99 1692.2,2089.01 556.322,953.127 557.724,953.109 559.121,953.058 560.514,952.972 561.9,952.853 563.281,952.7 564.656,952.515 566.024,952.298 567.384,952.048 568.738,951.767 570.082,951.455 571.418,951.113 572.744,950.741 574.061,950.338 575.369,949.907 576.664,949.446 577.949,948.957 579.222,948.44 580.484,947.894 581.732,947.323 582.968,946.724 584.189,946.098 585.397,945.447 586.59,944.769 587.768,944.068 588.931,943.34 590.078,942.589 591.208,941.814 592.321,941.016 593.417,940.194 594.495,939.35 595.555,938.483 "/>
     <polygon id="_339491856" class="fil1" points="518.256,953.127 1654.14,2089.01 1652.66,2088.99 1651.19,2088.93 1649.73,2088.84 1648.28,2088.71 1646.83,2088.54 1645.4,2088.33 1643.97,2088.09 1642.56,2087.82 1641.15,2087.5 1639.76,2087.15 1638.38,2086.77 1637.01,2086.35 1635.65,2085.89 1634.31,2085.4 1632.98,2084.88 1631.66,2084.32 495.781,948.433 497.097,948.993 498.426,949.518 499.77,950.009 501.126,950.465 502.496,950.885 503.878,951.27 505.27,951.62 506.674,951.934 508.091,952.211 509.516,952.452 510.951,952.658 512.396,952.826 513.848,952.957 515.311,953.051 516.78,953.108 "/>
     <polygon id="_339491472" class="fil1" points="1028.37,1507.98 2164.25,2643.86 2162.4,2643.83 2160.54,2643.74 2158.68,2643.6 2156.83,2643.4 2154.98,2643.14 2153.13,2642.82 2151.3,2642.45 2149.48,2642.02 2147.68,2641.53 2145.89,2640.99 2144.12,2640.39 2142.37,2639.74 2140.64,2639.03 2138.95,2638.27 2137.28,2637.45 2135.64,2636.57 999.755,1500.69 1001.39,1501.56 1003.06,1502.38 1004.76,1503.15 1006.49,1503.86 1008.24,1504.51 1010.01,1505.11 1011.79,1505.65 1013.6,1506.14 1015.42,1506.57 1017.25,1506.94 1019.1,1507.26 1020.95,1507.51 1022.8,1507.72 1024.66,1507.86 1026.52,1507.95 "/>
     <polygon id="_339491544" class="fil1" points="999.755,1500.69 2135.64,2636.57 2134.8,2636.1 2133.87,2635.57 2132.86,2634.99 2131.78,2634.36 2130.63,2633.68 2129.41,2632.96 2128.14,2632.2 2126.82,2631.42 2125.45,2630.61 2124.04,2629.77 2122.6,2628.92 2121.14,2628.05 2119.65,2627.17 2118.14,2626.29 2116.63,2625.41 2115.11,2624.53 2113.6,2623.67 2112.09,2622.81 2110.6,2621.97 2109.12,2621.16 2107.68,2620.37 2106.26,2619.61 2104.89,2618.89 2103.55,2618.21 2102.27,2617.57 2101.04,2616.98 2099.87,2616.44 2098.78,2615.97 2097.75,2615.55 2096.8,2615.2 2095.94,2614.93 2095.17,2614.73 959.292,1478.84 960.062,1479.04 960.922,1479.32 961.869,1479.67 962.894,1480.08 963.993,1480.56 965.16,1481.1 966.387,1481.69 967.671,1482.32 969.004,1483.01 970.381,1483.73 971.796,1484.49 973.243,1485.28 974.716,1486.09 976.209,1486.93 977.716,1487.78 979.231,1488.65 980.748,1489.53 982.262,1490.41 983.767,1491.29 985.255,1492.17 986.723,1493.04 988.163,1493.89 989.57,1494.72 990.937,1495.54 992.26,1496.32 993.531,1497.08 994.745,1497.79 995.897,1498.47 996.98,1499.11 997.987,1499.69 998.915,1500.22 "/>
     <polygon id="_339491712" class="fil1" points="959.292,1478.84 2095.17,2614.73 2094.64,2614.62 2094.08,2614.52 2093.48,2614.44 2092.84,2614.38 2092.18,2614.32 2091.48,2614.29 2090.75,2614.26 2089.99,2614.26 954.109,1478.37 954.869,1478.38 955.598,1478.4 956.297,1478.44 956.963,1478.49 957.597,1478.56 958.197,1478.64 958.763,1478.74 "/>
     <polygon id="_339491928" class="fil1" points="954.109,1478.37 2089.99,2614.26 2088.89,2614.3 2087.73,2614.44 2086.5,2614.67 2085.21,2614.97 2083.87,2615.36 2082.48,2615.81 2081.04,2616.34 2079.57,2616.92 2078.06,2617.56 2076.52,2618.25 2074.95,2618.99 2073.37,2619.77 2071.76,2620.59 2070.14,2621.44 2068.52,2622.32 2066.9,2623.22 2065.27,2624.13 2063.65,2625.06 2062.05,2626 2060.46,2626.93 2058.89,2627.87 2057.35,2628.8 2055.84,2629.71 2054.36,2630.61 2052.92,2631.49 2051.53,2632.34 2050.18,2633.15 2048.89,2633.93 2047.66,2634.67 2046.49,2635.36 2045.39,2635.99 2044.36,2636.57 908.475,1500.69 909.505,1500.11 910.608,1499.47 911.777,1498.78 913.011,1498.05 914.301,1497.27 915.647,1496.45 917.04,1495.61 918.479,1494.73 919.957,1493.83 921.468,1492.92 923.011,1491.99 924.579,1491.05 926.168,1490.11 927.773,1489.18 929.39,1488.25 931.014,1487.33 932.64,1486.43 934.263,1485.56 935.879,1484.71 937.484,1483.89 939.072,1483.11 940.638,1482.37 942.179,1481.68 943.689,1481.04 945.164,1480.45 946.599,1479.93 947.989,1479.48 949.331,1479.09 950.618,1478.78 951.846,1478.56 953.012,1478.42 "/>
     <polygon id="_339492072" class="fil1" points="908.475,1500.69 2044.36,2636.57 2044.18,2636.64 2043.7,2636.83 2042.96,2637.12 2042,2637.51 2040.86,2637.96 2039.57,2638.48 2038.17,2639.03 2036.7,2639.61 2035.2,2640.19 2033.71,2640.77 2032.26,2641.32 2030.9,2641.83 2029.66,2642.28 2028.57,2642.66 2027.69,2642.95 2027.04,2643.12 891.162,1507.24 891.81,1507.06 892.693,1506.78 893.775,1506.4 895.018,1505.95 896.381,1505.44 897.829,1504.89 899.32,1504.31 900.82,1503.73 902.288,1503.15 903.687,1502.59 904.978,1502.08 906.122,1501.62 907.083,1501.24 907.821,1500.94 908.297,1500.76 "/>
     <polygon id="_339491328" class="fil1" points="891.162,1507.24 2027.04,2643.12 2025.93,2643.37 2024.81,2643.61 2023.69,2643.83 2022.56,2644.03 2021.42,2644.22 2020.28,2644.39 2019.14,2644.54 2017.99,2644.68 2016.84,2644.81 2015.69,2644.91 2014.54,2645 2013.38,2645.08 2012.23,2645.14 2011.07,2645.18 2009.91,2645.2 2008.75,2645.21 872.872,1509.33 874.029,1509.32 875.187,1509.3 876.344,1509.25 877.502,1509.2 878.657,1509.12 879.811,1509.03 880.962,1508.92 882.111,1508.8 883.257,1508.66 884.399,1508.5 885.539,1508.33 886.674,1508.15 887.805,1507.94 888.929,1507.72 890.049,1507.49 "/>
     <polygon id="_339491904" class="fil1" points="872.872,1509.33 2008.75,2645.21 2007.59,2645.2 2006.44,2645.18 2005.28,2645.14 2004.12,2645.08 2002.97,2645 2001.81,2644.91 2000.66,2644.8 1999.51,2644.68 1998.36,2644.54 1997.22,2644.39 1996.08,2644.22 1994.94,2644.03 1993.81,2643.82 1992.69,2643.61 1991.57,2643.37 1990.46,2643.12 854.574,1507.24 855.688,1507.49 856.808,1507.72 857.933,1507.94 859.064,1508.14 860.199,1508.33 861.338,1508.5 862.482,1508.66 863.629,1508.8 864.778,1508.92 865.929,1509.03 867.085,1509.12 868.24,1509.2 869.397,1509.25 870.555,1509.3 871.713,1509.32 "/>
     <polygon id="_339491784" class="fil1" points="854.574,1507.24 1990.46,2643.12 1989.3,2642.84 1988.15,2642.55 1987.01,2642.24 1985.88,2641.91 1984.76,2641.56 1983.65,2641.19 1982.55,2640.81 1981.46,2640.4 1980.37,2639.98 1979.31,2639.55 1978.25,2639.09 1977.2,2638.62 1976.17,2638.14 1975.15,2637.63 1974.14,2637.11 1973.15,2636.57 837.27,1500.69 838.262,1501.23 839.268,1501.75 840.288,1502.25 841.321,1502.74 842.366,1503.21 843.425,1503.67 844.494,1504.1 845.574,1504.52 846.667,1504.92 847.769,1505.31 848.88,1505.67 850.002,1506.02 851.133,1506.35 852.272,1506.67 853.419,1506.96 "/>
     <polygon id="_339491400" class="fil1" points="837.27,1500.69 1973.15,2636.57 1972.4,2636.15 1971.55,2635.67 1970.59,2635.12 1969.54,2634.52 1968.4,2633.86 1967.19,2633.15 1965.91,2632.41 1964.56,2631.62 1963.15,2630.81 1961.7,2629.97 1960.21,2629.1 1958.68,2628.22 1957.13,2627.33 1955.56,2626.42 1953.98,2625.52 1952.39,2624.62 1950.81,2623.73 1949.24,2622.85 1947.69,2621.99 1946.17,2621.15 1944.68,2620.34 1943.23,2619.57 1941.83,2618.83 1940.49,2618.13 1939.21,2617.48 1938.01,2616.89 1936.88,2616.36 1935.84,2615.88 1934.89,2615.48 1934.05,2615.15 1933.31,2614.89 1932.69,2614.73 796.81,1478.84 797.43,1479.01 798.166,1479.26 799.012,1479.6 799.959,1480 800.999,1480.47 802.127,1481.01 803.333,1481.6 804.611,1482.25 805.953,1482.94 807.351,1483.68 808.799,1484.46 810.289,1485.27 811.812,1486.11 813.362,1486.97 814.931,1487.85 816.511,1488.74 818.096,1489.64 819.677,1490.54 821.247,1491.44 822.8,1492.34 824.326,1493.22 825.819,1494.08 827.272,1494.93 828.675,1495.74 830.024,1496.53 831.309,1497.27 832.522,1497.98 833.658,1498.63 834.708,1499.24 835.666,1499.79 836.522,1500.27 "/>
     <polygon id="_339492408" class="fil1" points="796.81,1478.84 1932.69,2614.73 1931.53,2614.51 1930.26,2614.36 1928.9,2614.27 1927.5,2614.24 1926.11,2614.27 1924.75,2614.36 1923.47,2614.51 1922.32,2614.73 786.434,1478.84 787.593,1478.63 788.87,1478.48 790.225,1478.39 791.621,1478.36 793.019,1478.39 794.375,1478.48 795.651,1478.63 "/>
     <polygon id="_339492792" class="fil1" points="786.434,1478.84 1922.32,2614.73 1921.69,2614.89 1920.96,2615.15 1920.11,2615.48 1919.16,2615.88 1918.12,2616.35 1917,2616.89 1915.79,2617.48 1914.52,2618.13 1913.17,2618.82 1911.78,2619.56 1910.33,2620.34 1908.84,2621.14 1907.32,2621.98 1905.77,2622.84 1904.21,2623.72 1902.63,2624.61 1901.05,2625.51 1899.47,2626.41 1897.9,2627.32 1896.35,2628.21 1894.82,2629.09 1893.33,2629.96 1891.88,2630.8 1890.47,2631.62 1889.13,2632.4 1887.84,2633.15 1886.63,2633.85 1885.49,2634.51 1884.44,2635.12 1883.48,2635.67 1882.62,2636.15 1881.87,2636.57 745.99,1500.69 746.741,1500.27 747.598,1499.78 748.557,1499.23 749.608,1498.63 750.746,1497.97 751.96,1497.26 753.245,1496.52 754.593,1495.73 755.996,1494.92 757.447,1494.07 758.94,1493.21 760.465,1492.33 762.016,1491.43 763.584,1490.53 765.165,1489.63 766.747,1488.73 768.327,1487.84 769.893,1486.96 771.441,1486.1 772.962,1485.26 774.451,1484.45 775.896,1483.68 777.294,1482.94 778.634,1482.24 779.911,1481.6 781.117,1481.01 782.244,1480.47 783.283,1480 784.23,1479.59 785.076,1479.26 785.813,1479.01 "/>
     <polygon id="_339492144" class="fil1" points="745.99,1500.69 1881.87,2636.57 1880.88,2637.11 1879.87,2637.63 1878.85,2638.14 1877.82,2638.62 1876.77,2639.09 1875.71,2639.55 1874.64,2639.98 1873.56,2640.4 1872.47,2640.81 1871.37,2641.19 1870.26,2641.56 1869.14,2641.91 1868.01,2642.24 1866.87,2642.55 1865.72,2642.84 1864.57,2643.12 728.684,1507.24 729.839,1506.96 730.986,1506.67 732.125,1506.35 733.255,1506.02 734.377,1505.67 735.488,1505.31 736.59,1504.92 737.682,1504.52 738.764,1504.1 739.832,1503.67 740.891,1503.21 741.936,1502.74 742.969,1502.25 743.99,1501.75 744.996,1501.23 "/>
     <polygon id="_339492672" class="fil1" points="728.684,1507.24 1864.57,2643.12 1863.45,2643.37 1862.33,2643.61 1861.21,2643.82 1860.08,2644.03 1858.94,2644.22 1857.8,2644.39 1856.66,2644.54 1855.51,2644.68 1854.36,2644.8 1853.21,2644.91 1852.06,2645 1850.9,2645.08 1849.74,2645.14 1848.58,2645.18 1847.43,2645.2 1846.27,2645.21 710.386,1509.33 711.545,1509.32 712.704,1509.3 713.861,1509.25 715.019,1509.2 716.175,1509.12 717.329,1509.03 718.48,1508.92 719.631,1508.8 720.777,1508.66 721.92,1508.5 723.06,1508.33 724.195,1508.14 725.325,1507.94 726.451,1507.72 727.57,1507.49 "/>
     <polygon id="_339492384" class="fil1" points="710.386,1509.33 1846.27,2645.21 1843.69,2645.16 1841.14,2645.02 1838.61,2644.79 1836.12,2644.47 1833.65,2644.06 1831.2,2643.58 1828.78,2643.02 1826.38,2642.39 1824,2641.69 1821.64,2640.93 1819.3,2640.11 1816.97,2639.23 1814.67,2638.29 1812.38,2637.31 1810.1,2636.29 1807.84,2635.22 1805.6,2634.11 1803.36,2632.97 1801.13,2631.8 1798.92,2630.6 1796.71,2629.38 1794.51,2628.14 1792.32,2626.88 1790.13,2625.62 1787.94,2624.35 1785.76,2623.07 1783.59,2621.79 1781.41,2620.52 1779.23,2619.25 1777.05,2617.99 1774.87,2616.75 1772.68,2615.53 636.804,1479.65 638.987,1480.87 641.169,1482.11 643.348,1483.37 645.526,1484.63 647.704,1485.91 649.883,1487.19 652.063,1488.46 654.247,1489.74 656.436,1491 658.63,1492.26 660.83,1493.5 663.037,1494.72 665.253,1495.92 667.479,1497.09 669.715,1498.23 671.963,1499.33 674.223,1500.4 676.498,1501.43 678.787,1502.41 681.093,1503.34 683.415,1504.22 685.754,1505.05 688.114,1505.81 690.494,1506.51 692.895,1507.14 695.318,1507.7 697.765,1508.18 700.236,1508.58 702.733,1508.9 705.256,1509.14 707.807,1509.28 "/>
     <polygon id="_339492264" class="fil1" points="636.804,1479.65 1772.68,2615.53 1772.59,2615.5 1772.33,2615.42 1771.96,2615.29 1771.53,2615.15 1771.09,2615.01 1770.69,2614.87 1770.38,2614.77 1770.21,2614.73 634.332,1478.84 634.499,1478.89 634.808,1478.99 635.206,1479.12 635.645,1479.27 636.075,1479.41 636.445,1479.53 636.704,1479.62 "/>
     <polygon id="_339492552" class="fil1" points="634.332,1478.84 1770.21,2614.73 1768.93,2614.51 1767.37,2614.35 1765.62,2614.27 1763.78,2614.28 1761.95,2614.39 1760.22,2614.61 1758.7,2614.97 1757.48,2615.47 621.603,1479.59 622.821,1479.09 624.341,1478.73 626.065,1478.51 627.896,1478.39 629.736,1478.38 631.486,1478.47 633.051,1478.62 "/>
     <polygon id="_339492288" class="fil1" points="621.603,1479.59 1757.48,2615.47 1719.38,2636.57 583.503,1500.69 "/>
     <polygon id="_339492312" class="fil1" points="583.503,1500.69 1719.38,2636.57 1718.56,2637.02 1717.72,2637.46 1716.88,2637.88 1716.04,2638.29 1715.18,2638.68 1714.32,2639.06 1713.46,2639.42 1712.59,2639.77 1711.71,2640.11 1710.83,2640.43 1709.95,2640.73 1709.05,2641.02 1708.16,2641.3 1707.26,2641.56 1706.35,2641.81 1705.44,2642.04 569.563,1506.16 570.472,1505.93 571.376,1505.68 572.276,1505.42 573.173,1505.14 574.065,1504.85 574.95,1504.54 575.832,1504.22 576.708,1503.89 577.578,1503.54 578.443,1503.17 579.302,1502.8 580.156,1502.4 581.002,1502 581.842,1501.57 582.676,1501.14 "/>
     <polygon id="_339492336" class="fil1" points="569.563,1506.16 1705.44,2642.04 1704.53,2642.26 1703.62,2642.46 1702.7,2642.65 1701.78,2642.83 1700.86,2642.99 1699.95,2643.14 1699.03,2643.28 1698.11,2643.4 1697.19,2643.51 1696.27,2643.6 1695.35,2643.68 1694.43,2643.74 1693.51,2643.79 1692.6,2643.83 1691.68,2643.85 1690.77,2643.86 554.885,1507.98 555.799,1507.97 556.714,1507.95 557.631,1507.91 558.548,1507.86 559.467,1507.8 560.386,1507.72 561.306,1507.63 562.225,1507.52 563.145,1507.4 564.064,1507.26 564.983,1507.11 565.901,1506.95 566.819,1506.77 567.735,1506.58 568.649,1506.38 "/>
     <polygon id="_339492192" class="fil1" points="554.885,1507.98 1690.77,2643.86 1686.68,2643.69 1682.58,2643.19 1678.47,2642.39 1674.38,2641.28 1670.29,2639.89 1666.24,2638.22 1662.22,2636.3 1658.24,2634.13 1654.31,2631.74 1650.45,2629.13 1646.66,2626.32 1642.95,2623.32 507.067,1487.43 510.778,1490.43 514.569,1493.25 518.432,1495.86 522.357,1498.25 526.335,1500.42 530.358,1502.34 534.414,1504 538.496,1505.4 542.593,1506.5 546.696,1507.31 550.797,1507.81 "/>
     <polygon id="_339493560" class="fil1" points="678.202,568.384 1814.08,1704.27 1814.16,1704.4 1814.35,1704.72 1814.64,1705.21 1815.04,1705.86 1815.55,1706.66 1816.16,1707.61 1816.87,1708.71 1817.69,1709.93 1818.61,1711.28 1819.63,1712.75 1820.76,1714.32 1821.99,1716 1823.32,1717.76 1824.76,1719.62 1826.29,1721.55 1827.93,1723.55 1829.66,1725.62 1831.5,1727.74 1833.43,1729.9 1835.46,1732.11 1837.59,1734.34 701.71,598.458 699.58,596.223 697.548,594.018 695.614,591.853 693.78,589.734 692.045,587.67 690.41,585.669 688.876,583.737 687.442,581.882 686.11,580.113 684.88,578.438 683.752,576.864 682.727,575.398 681.806,574.049 680.988,572.824 680.274,571.732 679.665,570.779 679.16,569.973 678.761,569.324 678.468,568.837 678.282,568.521 "/>
     <polygon id="_339493320" class="fil1" points="1116.07,1389.61 2251.95,2525.5 2252.6,2527.66 2253.16,2529.86 2253.64,2532.1 2254.04,2534.36 2254.37,2536.65 2254.62,2538.97 2254.79,2541.29 2254.88,2543.64 2254.9,2545.99 2254.85,2548.34 2254.72,2550.7 2254.53,2553.06 2254.26,2555.41 2253.92,2557.75 2253.51,2560.07 2253.03,2562.38 1117.15,1426.49 1117.63,1424.19 1118.04,1421.86 1118.38,1419.52 1118.65,1417.18 1118.84,1414.82 1118.97,1412.46 1119.02,1410.11 1119,1407.75 1118.91,1405.41 1118.74,1403.08 1118.49,1400.77 1118.16,1398.48 1117.76,1396.22 1117.28,1393.98 1116.72,1391.78 "/>
     <polygon id="_339493176" class="fil1" points="556.322,953.127 1692.2,2089.01 1654.14,2089.01 518.256,953.127 "/>
     <polygon id="_339493608" class="fil1" points="1117.15,1426.49 2253.03,2562.38 2252.45,2564.65 2251.7,2567.02 2250.79,2569.5 2249.72,2572.05 2248.5,2574.69 2247.15,2577.39 2245.67,2580.14 2244.06,2582.94 2242.34,2585.78 2240.5,2588.65 2238.57,2591.53 2236.55,2594.43 2234.44,2597.32 2232.25,2600.2 2230,2603.05 2227.68,2605.88 2225.31,2608.67 2222.89,2611.4 2220.44,2614.08 2217.95,2616.68 2215.45,2619.21 2212.92,2621.65 2210.39,2623.99 2207.86,2626.22 2205.34,2628.33 2202.83,2630.31 2200.35,2632.16 2197.9,2633.85 2195.48,2635.4 2193.12,2636.77 2190.8,2637.97 2188.55,2638.98 1052.67,1503.1 1054.92,1502.09 1057.24,1500.89 1059.6,1499.51 1062.01,1497.97 1064.47,1496.27 1066.95,1494.43 1069.46,1492.44 1071.98,1490.33 1074.51,1488.1 1077.04,1485.76 1079.57,1483.33 1082.07,1480.8 1084.56,1478.19 1087.01,1475.52 1089.43,1472.78 1091.8,1470 1094.12,1467.17 1096.37,1464.31 1098.56,1461.43 1100.67,1458.54 1102.69,1455.65 1104.62,1452.77 1106.45,1449.9 1108.18,1447.06 1109.78,1444.26 1111.27,1441.5 1112.62,1438.8 1113.84,1436.17 1114.9,1433.61 1115.82,1431.14 1116.57,1428.77 "/>
     <polygon id="_339492864" class="fil1" points="495.781,948.433 1631.66,2084.32 1630.34,2083.71 1629.04,2083.07 1627.76,2082.4 1626.49,2081.69 1625.24,2080.94 1624.02,2080.16 1622.81,2079.34 1621.63,2078.49 1620.46,2077.6 1619.32,2076.68 1618.2,2075.73 1617.1,2074.74 481.222,938.859 482.318,939.846 483.437,940.8 484.581,941.72 485.744,942.605 486.93,943.457 488.136,944.274 489.362,945.056 490.608,945.803 491.874,946.514 493.158,947.189 494.461,947.829 "/>
     <polygon id="_339493032" class="fil1" points="1052.67,1503.1 2188.55,2638.98 2187.12,2639.56 2185.66,2640.1 2184.19,2640.6 2182.71,2641.07 2181.21,2641.51 2179.71,2641.91 2178.19,2642.28 2176.67,2642.6 2175.13,2642.89 2173.59,2643.15 2172.05,2643.36 2170.49,2643.54 2168.94,2643.68 2167.38,2643.78 2165.82,2643.84 2164.25,2643.86 1028.37,1507.98 1029.94,1507.96 1031.5,1507.9 1033.06,1507.8 1034.61,1507.66 1036.16,1507.48 1037.71,1507.26 1039.25,1507.01 1040.78,1506.72 1042.31,1506.39 1043.83,1506.03 1045.33,1505.63 1046.83,1505.19 1048.31,1504.72 1049.78,1504.22 1051.23,1503.67 "/>
     <polygon id="_339492984" class="fil1" points="1083.72,972.024 2219.6,2107.91 2218.48,2108.29 2217.35,2108.66 2216.22,2108.99 2215.07,2109.31 2213.92,2109.6 2212.76,2109.86 2211.6,2110.1 2210.43,2110.32 2209.25,2110.51 2208.07,2110.68 2206.88,2110.82 2205.69,2110.93 2204.49,2111.02 2203.29,2111.09 2202.08,2111.13 2200.87,2111.14 1064.99,975.256 1066.2,975.243 1067.41,975.204 1068.61,975.14 1069.81,975.05 1071,974.935 1072.19,974.794 1073.37,974.629 1074.55,974.437 1075.72,974.221 1076.88,973.981 1078.04,973.716 1079.19,973.426 1080.33,973.112 1081.47,972.773 1082.6,972.411 "/>
     <polygon id="_339493152" class="fil1" points="1558.16,1155.99 2694.04,2291.87 2221.53,2291.87 1085.65,1155.99 "/>
     <polygon id="_339493296" class="fil1" points="1584,1096.42 2719.88,2232.31 2719.88,2233.4 2719.87,2234.5 2719.86,2235.62 2719.84,2236.76 2719.82,2237.91 2719.8,2239.07 2719.77,2240.25 2719.73,2241.45 2719.69,2242.66 2719.65,2243.88 2719.6,2245.11 2719.54,2246.37 2719.49,2247.63 2719.42,2248.91 2719.36,2250.2 2719.28,2251.51 1583.4,1115.63 1583.47,1114.32 1583.54,1113.03 1583.6,1111.75 1583.66,1110.48 1583.72,1109.23 1583.76,1108 1583.81,1106.77 1583.85,1105.56 1583.88,1104.37 1583.91,1103.19 1583.94,1102.03 1583.96,1100.88 1583.98,1099.74 1583.99,1098.62 1584,1097.51 "/>
     <polygon id="_339493440" class="fil1" points="1583.4,1115.63 2719.28,2251.51 2719.21,2252.75 2719.14,2253.99 2719.06,2255.22 2718.97,2256.44 2718.88,2257.66 2718.79,2258.87 2718.7,2260.08 2718.6,2261.28 2718.5,2262.47 2718.39,2263.66 2718.28,2264.84 2718.17,2266.01 2718.05,2267.18 2717.93,2268.35 2717.81,2269.5 2717.68,2270.65 1581.8,1134.77 1581.92,1133.62 1582.05,1132.46 1582.17,1131.3 1582.29,1130.13 1582.4,1128.96 1582.51,1127.78 1582.62,1126.59 1582.72,1125.4 1582.82,1124.2 1582.91,1122.99 1583,1121.78 1583.09,1120.56 1583.17,1119.34 1583.25,1118.11 1583.33,1116.87 "/>
     <polygon id="_339493992" class="fil1" points="1581.8,1134.77 2717.68,2270.65 2718.11,2272.22 2718.11,2273.88 2717.71,2275.6 2716.94,2277.37 2715.86,2279.14 2714.49,2280.91 2712.89,2282.63 2711.07,2284.29 2709.1,2285.85 2707,2287.29 2704.82,2288.58 2702.6,2289.7 2700.36,2290.61 2698.17,2291.3 2696.05,2291.73 2694.04,2291.87 1558.16,1155.99 1560.16,1155.84 1562.29,1155.41 1564.48,1154.73 1566.71,1153.81 1568.94,1152.7 1571.12,1151.4 1573.22,1149.97 1575.19,1148.4 1577,1146.75 1578.61,1145.03 1579.98,1143.26 1581.06,1141.48 1581.83,1139.72 1582.23,1137.99 1582.23,1136.33 "/>
    </g>
    <path id="_341193088" class="fil1" d="M678.192 568.389l0 0zm647.409 121.171c38.4544,0 73.2709,15.5894 98.4733,40.7918 25.2024,25.2036 40.7918,60.0189 40.7918,98.4733 0,5.48622 -0.343701,11.048 -1.02638,16.6524 75.4489,55.7575 120.161,153.575 120.161,250.945 0,5.7815 -0.201969,12.1949 -0.597638,19.2047 -0.37441,6.64134 -0.912993,13.024 -1.6063,19.1421 3.56929,8.05158 -13.2969,21.2339 -23.641,21.2209l-472.502 0c-12.7618,0 -23.1803,-10.0335 -23.798,-22.6406 -0.617717,-5.68465 -1.10315,-11.5925 -1.44921,-17.7225 -0.39567,-7.00985 -0.597638,-13.4232 -0.597638,-19.2047 0,-44.3788 8.56536,-86.53 23.9103,-124.399 -5.95512,2.12599 -12.2622,3.2315 -18.7288,3.2315l-38.0693 0c-15.0425,0 -29.3492,-5.99174 -40.2992,-15.6638 -10.9228,-9.64725 -18.6201,-23.1106 -20.4815,-38.0859l-4.28504 -34.4587 -25.1386 55.5898c68.0245,108.8 144.276,324.359 179.356,446.976 3.64725,11.4437 3.80551,24.639 1.07717,36.8799 -5.26772,23.641 -40.839,66.8363 -64.4764,76.6064 -7.63819,3.15591 -15.9662,4.87678 -24.3,4.87678 -9.89174,0 -19.963,-2.47323 -28.6181,-7.28623 -8.48268,-4.69843 -32.7614,-20.1213 -40.4634,-21.8469 -1.36181,-0.304725 -3.12047,-0.468898 -5.18268,-0.468898 -11.328,0 -35.0481,16.4528 -45.6343,22.3158 -0.0826772,0 -14.5595,5.91378 -17.3126,6.55158 -5.92323,1.37008 -12.1169,2.08819 -18.2906,2.08819 -6.17717,0 -12.3732,-0.718111 -18.2977,-2.08937 -6.17953,-1.42913 -12.0508,-3.63662 -17.3043,-6.5504 -7.37599,-4.08544 -34.4941,-20.5016 -40.4599,-21.8469 -2.89488,-0.648426 -7.48111,-0.649607 -10.376,0 -5.97874,1.34055 -33.0378,17.7437 -40.4445,21.8469 -5.25709,2.91378 -11.1272,5.12126 -17.3055,6.5504 -5.92323,1.37126 -12.1205,2.08937 -18.2977,2.08937 -27.6732,0 -50.2618,-16.761 -73.5827,-29.6811 -0.00590552,0.0106299 -2.25827,-0.755906 -2.47205,-0.804331 -2.94921,-0.661418 -9.96969,-0.787796 -12.7287,0.742914l-38.1 21.1028c-4.39134,2.43543 -9.08268,4.27087 -13.9394,5.46851 -4.86851,1.20118 -9.8067,1.81772 -14.6788,1.81772 -43.5083,0 -90.7087,-58.213 -90.6532,-98.4934 0.00354331,-3.69095 0.220866,-7.07481 0.657875,-10.0736 0.451181,-3.07677 1.21772,-6.35197 2.31614,-9.79607 34.6618,-121.154 111.817,-339.86 179.264,-447.105 -0.00944883,-0.0212599 -0.0177165,-0.0437008 -0.0271654,-0.0649607l-26.5394 -61.291 -2.56418 18.6331c-2.05394,14.9386 -9.83741,28.3004 -20.7437,37.8107 -10.9984,9.58938 -25.3004,15.5315 -40.2733,15.5315l-38.0658 0c-7.89331,0 -15.4984,-1.61693 -22.4752,-4.6937 -7.08898,-3.12284 -13.4398,-7.79764 -18.7099,-13.8567 -5.20394,-5.98819 -8.91851,-12.913 -11.0374,-20.4095 -2.04921,-7.25079 -2.57244,-14.974 -1.47165,-22.8106l36.0284 -255.553c1.73386,-12.2988 7.30394,-25.0748 15.0036,-35.9221 7.6819,-10.8165 17.8736,-20.2571 28.8815,-25.9299l55.7705 -28.774c3.99449,-2.05984 8.38701,-3.66733 13.0441,-4.78819 4.71615,-1.13504 9.30237,-1.71851 13.6264,-1.71851 10.552,0 20.7709,2.85827 29.6953,8.01615 8.87245,5.12953 16.3819,12.5469 21.5906,21.6969 0.276378,0.484252 18.8717,32.7792 53.2949,54.5044 16.4693,10.3925 36.6508,18.189 60.13,18.189 23.5299,0 43.7315,-7.79764 60.2008,-18.1925 34.4256,-21.7264 52.7469,-53.6162 53.0138,-54.1004l0.100394 -0.199606c5.19922,-9.24568 12.75,-16.7303 21.6886,-21.8953 8.92442,-5.15906 19.1469,-8.01851 29.6977,-8.01851 4.39725,0 9.02127,0.584646 13.7339,1.72087 4.54961,1.09961 8.90552,2.70709 12.9366,4.79646l55.767 28.7634c11.0917,5.72245 21.3,15.2114 28.9335,26.0693 7.62166,10.8378 13.089,23.6599 14.7165,36.0685l35.8796 272.808c5.40945,-7.57442 11.139,-14.8406 17.1638,-21.7701 15.3709,-17.6764 32.6563,-33.1736 51.4772,-46.0559 -0.400394,-4.25433 -0.601182,-8.34213 -0.601182,-12.2457 0,-38.4544 15.5894,-73.2697 40.7918,-98.4733 25.2036,-25.2024 60.0201,-40.7918 98.4733,-40.7918z"/>
   </g>
  </g>
  <path class="fil2" d="M1024 0c565.539,0 1024,458.461 1024,1024 0,565.539 -458.461,1024 -1024,1024 -565.539,0 -1024,-458.461 -1024,-1024 0,-565.539 458.461,-1024 1024,-1024z"/>
  <path class="fil3" d="M1191.11 864.845c-1.50709,-5.62559 -2.67756,-11.6008 -3.50433,-17.8807 -0.842127,-6.40276 -1.26732,-12.4642 -1.26732,-18.1394 0,-38.4544 15.5894,-73.2697 40.7918,-98.4733 25.2036,-25.2024 60.0201,-40.7918 98.4733,-40.7918 38.4544,0 73.2709,15.5894 98.4733,40.7918 25.2024,25.2036 40.7918,60.0189 40.7918,98.4733 0,6.65315 -0.505512,13.4162 -1.50709,20.2323 -0.982678,6.68504 -2.45315,13.298 -4.40079,19.7823l-45.6059 -13.5898c1.28976,-4.29095 2.26181,-8.66457 2.91142,-13.0807 0.629528,-4.28622 0.947245,-8.74607 0.947245,-13.3441 0,-25.3004 -10.2532,-48.2032 -26.8299,-64.78 -16.5756,-16.5768 -39.4796,-26.8299 -64.78,-26.8299 -25.2992,0 -48.2032,10.2532 -64.78,26.8299 -16.5768,16.5768 -26.8299,39.4796 -26.8299,64.78 0,4.41142 0.237402,8.42009 0.708662,11.9953 0.485433,3.69803 1.28386,7.62166 2.38701,11.739l-45.9792 12.2858z"/>
  <path class="fil4" d="M648.041 947.589c-0.233858,-2.12244 -0.82441,-3.26693 -1.59803,-5.14607l-26.5394 -61.291 -2.56418 18.6331c-2.05276,14.9386 -9.83741,28.3004 -20.7425,37.8107 -10.9996,9.58938 -25.3004,15.5315 -40.2744,15.5315l-38.0658 0c-7.89331,0 -15.4984,-1.61693 -22.4752,-4.6937 -7.0878,-3.12284 -13.4398,-7.79764 -18.7087,-13.8567 -5.20512,-5.98819 -8.91969,-12.913 -11.0386,-20.4095 -2.04921,-7.25079 -2.57244,-14.974 -1.47165,-22.8106l36.0284 -255.552c1.73268,-12.3012 7.30394,-25.076 15.0036,-35.9221 7.68071,-10.8177 17.8736,-20.2583 28.8815,-25.9311l55.7717 -28.774c3.99331,-2.05984 8.38583,-3.66733 13.0429,-4.78819 4.71615,-1.13504 9.30355,-1.71851 13.6276,-1.71851 10.5508,0 20.7697,2.85827 29.6941,8.01733 8.87127,5.12835 16.3819,12.5445 21.5799,21.7016l0.0106299 -0.00590552c0.276378,0.484252 18.8717,32.7792 53.2961,54.5044 16.4681,10.3937 36.6496,18.189 60.1288,18.189 23.5299,0 43.7303,-7.79764 60.2008,-18.1925 34.4256,-21.7264 52.7469,-53.6162 53.015,-54.1004l0.100394 -0.199606c5.19804,-9.24568 12.75,-16.7303 21.6874,-21.8965 8.92442,-5.15788 19.1469,-8.01733 29.6977,-8.01733 4.39843,0 9.02009,0.584646 13.7339,1.72087 4.55079,1.09843 8.90552,2.70709 12.9366,4.79646l55.767 28.7634c11.0917,5.72245 21.2988,15.2114 28.9335,26.0693 7.62166,10.8378 13.089,23.6599 14.7165,36.0697l36.5126 277.618c1.02992,7.81536 0.437008,15.5351 -1.67599,22.8024 -2.17795,7.48701 -5.91969,14.3788 -11.1154,20.3067 -5.25237,5.98111 -11.6209,10.6158 -18.7606,13.7516 -7.00158,3.07441 -14.5772,4.6878 -22.3866,4.6878l-38.0693 0c-15.0414,0 -29.3492,-5.99292 -40.2992,-15.665 -10.9228,-9.64843 -18.6213,-23.1106 -20.4815,-38.0859l-4.28504 -34.4587 -25.2071 55.7422c-0.896457,1.79173 -1.2874,2.69173 -1.49764,4.79882l-287.11 0z"/>
  <path class="fil5" d="M1321.9 798.586c158.239,0 262.095,149.438 262.095,297.836 0,5.7815 -0.201969,12.1949 -0.597638,19.2047 -0.37441,6.64134 -0.912993,13.024 -1.6063,19.1421 3.56929,8.05158 -13.2969,21.2339 -23.641,21.2209l-472.502 0c-12.7618,0 -23.1803,-10.0335 -23.798,-22.6406 -0.617717,-5.68465 -1.10315,-11.5925 -1.44921,-17.7225 -0.39567,-7.00985 -0.597638,-13.4232 -0.597638,-19.2047 0,-81.5316 28.911,-155.545 75.6508,-209.296 47.5689,-54.704 113.477,-88.5402 186.445,-88.5402z"/>
  <path class="fil6" d="M1116.07 1389.61c3.64725,11.4437 3.80551,24.639 1.07717,36.8799 -5.26772,23.641 -40.839,66.8363 -64.4764,76.6064 -7.63819,3.15591 -15.9662,4.87678 -24.3,4.87678 -9.89174,0 -19.963,-2.47323 -28.6181,-7.28623 -8.48268,-4.69843 -32.7614,-20.1213 -40.4634,-21.8469 -1.36181,-0.304725 -3.12047,-0.468898 -5.18268,-0.468898 -11.328,0 -35.0481,16.4528 -45.6343,22.3158 -0.0826772,0 -14.5595,5.91378 -17.3126,6.55158 -5.92323,1.37008 -12.1169,2.08819 -18.2906,2.08819 -6.17717,0 -12.3732,-0.718111 -18.2977,-2.08937 -6.17953,-1.42913 -12.0508,-3.63662 -17.3043,-6.5504 -7.37599,-4.08544 -34.4941,-20.5016 -40.4599,-21.8469 -2.89488,-0.648426 -7.48111,-0.649607 -10.376,0 -5.97874,1.34055 -33.0378,17.7437 -40.4445,21.8469 -5.25709,2.91378 -11.1272,5.12126 -17.3055,6.5504 -5.92323,1.37126 -12.1205,2.08937 -18.2977,2.08937 -27.6732,0 -50.2618,-16.761 -73.5827,-29.6811 -0.00590552,0.0106299 -2.25827,-0.755906 -2.47205,-0.804331 -2.94921,-0.661418 -9.96969,-0.787796 -12.7287,0.742914l-38.1 21.1028c-4.39134,2.43543 -9.08268,4.27087 -13.9394,5.46851 -4.86851,1.20118 -9.8067,1.81772 -14.6788,1.81772 -43.5083,0 -90.7087,-58.213 -90.6532,-98.4934 0.00354331,-3.69095 0.220866,-7.07481 0.657875,-10.0736 0.451181,-3.07677 1.21772,-6.35197 2.31614,-9.79607 35.3173,-123.444 114.749,-348.161 183.077,-453.065l282.562 0c68.9812,106.657 147.481,328.118 183.228,453.065z"/>
  <path class="fil7" d="M1321.9 886.283c13.8142,0 25.0122,11.198 25.0122,25.0122 0,13.8142 -11.198,25.0122 -25.0122,25.0122 -13.8142,0 -25.0122,-11.198 -25.0122,-25.0122 0,-13.8142 11.198,-25.0122 25.0122,-25.0122z"/>
 </g>
</svg>
