<?xml version="1.0" encoding="UTF-8"?>
<!DOCTYPE svg PUBLIC "-//W3C//DTD SVG 1.1//EN" "http://www.w3.org/Graphics/SVG/1.1/DTD/svg11.dtd">
<!-- Creator: CorelDRAW -->
<svg xmlns="http://www.w3.org/2000/svg" xml:space="preserve" width="2048px" height="2048px" style="shape-rendering:geometricPrecision; text-rendering:geometricPrecision; image-rendering:optimizeQuality; fill-rule:evenodd; clip-rule:evenodd"
viewBox="0 0 2048 2048"
 xmlns:xlink="http://www.w3.org/1999/xlink">
 <defs>
  <style type="text/css">
   <![CDATA[
    .fil2 {fill:none}
    .fil1 {fill:#303F9F}
    .fil0 {fill:#5C6BC0}
    .fil3 {fill:#D4E157}
    .fil4 {fill:#F4511E}
   ]]>
  </style>
   <clipPath id="id0">
    <path d="M1024 -0.0011811c565.539,0 1024,458.462 1024,1024 0,565.539 -458.462,1024 -1024,1024 -565.539,0 -1024,-458.462 -1024,-1024 0,-565.539 458.462,-1024 1024,-1024z"/>
   </clipPath>
 </defs>
 <g id="Layer_x0020_1">
  <metadata id="CorelCorpID_0Corel-Layer"/>
  <path class="fil0" d="M1024 -0.0011811c565.539,0 1024,458.462 1024,1024 0,565.539 -458.462,1024 -1024,1024 -565.539,0 -1024,-458.462 -1024,-1024 0,-565.539 458.462,-1024 1024,-1024z"/>
  <g style="clip-path:url(#id0)">
   <g id="_300478352">
    <g>
     <polygon id="_2996338081" class="fil1" points="1448.04,658.215 2583.92,1794.1 2600.58,1814.32 2616.29,1835.32 2631.02,1857.06 2644.75,1879.51 2657.43,1902.64 2669.04,1926.42 2679.55,1950.81 2688.92,1975.78 2697.11,2001.3 2704.1,2027.34 2709.86,2053.86 2714.34,2080.83 2717.53,2108.21 2719.38,2135.99 1583.5,1000.11 1581.65,972.331 1578.46,944.943 1573.98,917.974 1568.22,891.454 1561.23,865.419 1553.04,839.899 1543.67,814.928 1533.16,790.537 1521.55,766.76 1508.87,743.63 1495.14,721.177 1480.41,699.435 1464.7,678.438 "/>
     <polygon id="_299633904" class="fil1" points="1587.89,999.497 2723.77,2135.38 2723.87,2137.3 2723.97,2139.23 2724.06,2141.16 2724.14,2143.09 2724.21,2145.02 2724.28,2146.96 2724.35,2148.89 2724.4,2150.83 2724.45,2152.77 2724.49,2154.71 2724.53,2156.65 2724.56,2158.59 2724.58,2160.54 2724.6,2162.48 2724.61,2164.43 2724.61,2166.38 2724.61,2167.67 2724.61,2168.96 2724.6,2170.25 2724.59,2171.54 2724.58,2172.83 2724.56,2174.12 2724.54,2175.41 2724.52,2176.7 2724.49,2177.98 2724.47,2179.27 2724.44,2180.55 2724.4,2181.84 2724.37,2183.12 2724.33,2184.4 2724.28,2185.69 2724.24,2186.97 1588.36,1051.09 1588.4,1049.8 1588.44,1048.52 1588.48,1047.24 1588.52,1045.96 1588.56,1044.67 1588.59,1043.39 1588.61,1042.1 1588.64,1040.81 1588.66,1039.53 1588.68,1038.24 1588.69,1036.95 1588.71,1035.66 1588.72,1034.37 1588.73,1033.08 1588.73,1031.79 1588.73,1030.5 1588.73,1028.55 1588.72,1026.6 1588.7,1024.65 1588.68,1022.71 1588.65,1020.77 1588.61,1018.82 1588.57,1016.88 1588.52,1014.95 1588.46,1013.01 1588.4,1011.07 1588.33,1009.14 1588.26,1007.21 1588.17,1005.28 1588.08,1003.35 1587.99,1001.42 "/>
     <polygon id="_299634528" class="fil1" points="1588.36,1051.09 2724.24,2186.97 2723.61,2187.05 2722.98,2187.13 2722.35,2187.21 2721.72,2187.29 2721.09,2187.37 2720.47,2187.45 2719.84,2187.53 2719.21,2187.6 1583.33,1051.72 1583.96,1051.64 1584.58,1051.57 1585.21,1051.49 1585.84,1051.41 1586.47,1051.33 1587.1,1051.25 1587.73,1051.17 "/>
     <polygon id="_299634600" class="fil1" points="1583.33,1051.72 2719.21,2187.6 2717.52,2211.63 2714.84,2235.37 2711.17,2258.8 2706.55,2281.9 2700.99,2304.64 2694.52,2327.01 2687.15,2348.98 2678.91,2370.54 2669.81,2391.66 2659.89,2412.33 2649.15,2432.51 2637.63,2452.2 2625.34,2471.36 2612.3,2489.98 2598.53,2508.03 2584.06,2525.5 2568.91,2542.37 2553.1,2558.61 2536.64,2574.19 2519.57,2589.11 2501.89,2603.34 2483.64,2616.86 2464.83,2629.64 2445.49,2641.68 2425.63,2652.93 2405.28,2663.39 2384.46,2673.03 2363.18,2681.84 2341.48,2689.78 2319.37,2696.84 2296.87,2703.01 2274,2708.25 1138.12,1572.36 1160.98,1567.12 1183.49,1560.96 1205.6,1553.9 1227.3,1545.95 1248.58,1537.15 1269.4,1527.51 1289.75,1517.05 1309.61,1505.79 1328.95,1493.76 1347.76,1480.98 1366.01,1467.46 1383.69,1453.23 1400.76,1438.31 1417.22,1422.72 1433.03,1406.49 1448.18,1389.62 1462.65,1372.15 1476.42,1354.09 1489.46,1335.48 1501.75,1316.31 1513.27,1296.63 1524.01,1276.45 1533.93,1255.78 1543.03,1234.66 1551.27,1213.1 1558.64,1191.13 1565.11,1168.76 1570.67,1146.01 1575.29,1122.92 1578.96,1099.49 1581.64,1075.75 "/>
     <polygon id="_299634576" class="fil1" points="1138.12,1572.36 2274,2708.25 2274,2708.36 2274,2708.48 2274,2708.59 2274.01,2708.71 2274.01,2708.82 2274.01,2708.94 2274.01,2709.05 2274.01,2709.17 1138.13,1573.28 1138.13,1573.17 1138.13,1573.05 1138.13,1572.94 1138.13,1572.82 1138.12,1572.71 1138.12,1572.59 1138.12,1572.48 "/>
     <polygon id="_299635584" class="fil1" points="1138.13,1573.28 2274.01,2709.17 2272.71,2709.41 2271.4,2709.64 2270.09,2709.87 2268.78,2710.11 2267.47,2710.33 2266.16,2710.56 2264.85,2710.78 2263.53,2711 2262.22,2711.21 2260.9,2711.42 2259.58,2711.63 2258.27,2711.84 2256.95,2712.04 2255.63,2712.24 2254.31,2712.44 2252.99,2712.63 2251.66,2712.82 2250.34,2713.01 2249.01,2713.2 2247.69,2713.38 2246.36,2713.56 2245.03,2713.73 2243.7,2713.9 2242.38,2714.07 2241.04,2714.24 2239.71,2714.4 2238.38,2714.56 2237.05,2714.72 2235.71,2714.88 2234.38,2715.03 2233.04,2715.17 2231.7,2715.32 1095.82,1579.44 1097.16,1579.29 1098.5,1579.14 1099.83,1578.99 1101.17,1578.84 1102.5,1578.68 1103.83,1578.52 1105.16,1578.36 1106.49,1578.19 1107.82,1578.02 1109.15,1577.85 1110.48,1577.67 1111.81,1577.5 1113.13,1577.31 1114.46,1577.13 1115.78,1576.94 1117.1,1576.75 1118.43,1576.56 1119.75,1576.36 1121.07,1576.16 1122.38,1575.96 1123.7,1575.75 1125.02,1575.54 1126.34,1575.33 1127.65,1575.11 1128.96,1574.89 1130.28,1574.67 1131.59,1574.45 1132.9,1574.22 1134.21,1573.99 1135.52,1573.76 1136.83,1573.52 "/>
     <polygon id="_299634984" class="fil1" points="1095.82,1579.44 2231.7,2715.32 2231.7,2715.32 2231.69,2715.32 2231.68,2715.32 2231.68,2715.32 1095.8,1579.44 1095.8,1579.44 1095.81,1579.44 1095.82,1579.44 "/>
     <polygon id="_299634960" class="fil1" points="464.203,1039.21 1600.08,2175.09 1599.58,2175.16 1599.07,2175.23 1598.56,2175.3 1598.05,2175.37 1597.54,2175.45 1597.03,2175.52 1596.52,2175.59 1596.01,2175.66 460.128,1039.78 460.637,1039.71 461.146,1039.64 461.657,1039.56 462.166,1039.49 462.675,1039.42 463.184,1039.35 463.694,1039.28 "/>
     <polygon id="_299635008" class="fil1" points="1095.8,1579.44 2231.68,2715.32 2229.47,2715.6 2227.27,2715.87 2225.05,2716.13 2222.84,2716.38 2220.63,2716.63 2218.41,2716.86 2216.19,2717.09 2213.96,2717.31 2211.74,2717.51 2209.51,2717.71 2207.28,2717.91 2205.04,2718.09 2202.81,2718.26 2200.57,2718.43 2198.33,2718.58 2196.09,2718.73 2193.84,2718.87 2191.59,2719 2189.34,2719.12 2187.09,2719.23 2184.84,2719.34 2182.58,2719.43 2180.32,2719.52 2178.06,2719.59 2175.79,2719.66 2173.53,2719.72 2171.26,2719.77 2168.99,2719.81 2166.71,2719.84 2164.44,2719.86 2162.16,2719.88 2159.88,2719.88 2131.53,2719.18 2103.55,2717.08 2075.97,2713.64 2048.82,2708.87 2022.14,2702.82 1995.95,2695.51 1970.3,2686.98 1945.22,2677.26 1920.73,2666.39 1896.88,2654.41 1873.69,2641.33 1851.2,2627.2 1829.45,2612.05 1808.47,2595.92 1788.28,2578.84 652.402,1442.95 672.586,1460.04 693.572,1476.17 715.323,1491.32 737.809,1505.45 760.995,1518.52 784.848,1530.51 809.334,1541.38 834.42,1551.1 860.072,1559.62 886.256,1566.93 912.941,1572.99 940.09,1577.76 967.672,1581.2 995.654,1583.29 1024,1584 1026.28,1584 1028.56,1583.98 1030.83,1583.96 1033.11,1583.93 1035.38,1583.89 1037.64,1583.84 1039.91,1583.78 1042.17,1583.71 1044.44,1583.63 1046.7,1583.55 1048.95,1583.45 1051.21,1583.35 1053.46,1583.24 1055.71,1583.12 1057.96,1582.99 1060.21,1582.85 1062.45,1582.7 1064.69,1582.54 1066.93,1582.38 1069.16,1582.21 1071.4,1582.02 1073.63,1581.83 1075.86,1581.63 1078.08,1581.42 1080.31,1581.2 1082.53,1580.98 1084.74,1580.74 1086.96,1580.5 1089.17,1580.25 1091.38,1579.99 1093.59,1579.72 "/>
    </g>
    <path id="_300478400" class="fil1" d="M1024 464c301.273,0 546.982,237.91 559.499,536.105 1.46221,-0.196063 2.92441,-0.399213 4.38662,-0.608268 0.564567,10.2626 0.84567,20.5996 0.84567,31.0016 0,6.89174 -0.122835,13.7551 -0.375591,20.5878 -1.6748,0.218504 -3.35197,0.431103 -5.03032,0.635434 -12.5658,257.764 -199.412,469.754 -445.209,520.642 0.00590552,0.307087 0.0106299,0.612993 0.0153543,0.920079 -13.9323,2.56772 -28.0418,4.62402 -42.3095,6.15355 -0.00826772,0.0011811 -0.0177165,0.00236221 -0.0259843,0.00354331 -23.5075,3.00827 -47.4709,4.55906 -71.7969,4.55906 -304.192,0 -551.737,-242.541 -559.797,-544.787 -1.35827,0.184252 -2.71654,0.373229 -4.07481,0.56693 -0.574016,-10.4303 -0.859843,-20.9362 -0.859843,-31.5095 0,-7.00512 0.125197,-13.9819 0.381496,-20.9256 1.85669,-0.243307 3.71575,-0.477166 5.57599,-0.702756 19.2236,-291.861 262.049,-522.642 558.774,-522.642z"/>
   </g>
  </g>
  <path class="fil2" d="M1024 -0.0011811c565.539,0 1024,458.462 1024,1024 0,565.539 -458.462,1024 -1024,1024 -565.539,0 -1024,-458.462 -1024,-1024 0,-565.539 458.462,-1024 1024,-1024z"/>
  <circle class="fil3" cx="1024" cy="1024" r="560.001"/>
  <path class="fil4" d="M1027.41 562.89c13.8555,-2.88071 22.7516,-16.4504 19.8709,-30.3059 -2.88307,-13.8567 -16.4528,-22.7528 -30.3083,-19.8721l-41.9433 8.7378c-1.83425,-17.713 -2.81103,-35.6788 -2.8878,-53.8571 -17.3457,1.55669 -34.4622,3.90237 -51.3178,7.00867 0.3,19.3666 1.53543,38.5051 3.65788,57.3768l-35.491 7.39371c-13.8567,2.88071 -22.7516,16.4504 -19.8709,30.3059 2.88189,13.8567 16.4516,22.7528 30.3071,19.8721l32.9953 -6.87284c2.33977,11.6114 5.02678,23.0977 8.03741,34.4516l-45.8552 9.55276c-13.8555,2.88071 -22.7516,16.4504 -19.8709,30.3059 2.88189,13.8567 16.4516,22.7528 30.3083,19.8721l50.7874 -10.5791c6.08504,16.8248 12.913,33.2953 20.4425,49.3713l-37.7953 13.4516c-13.3571,4.71024 -20.3669,19.3606 -15.6555,32.7166 4.71024,13.3571 19.3595,20.3669 32.7166,15.6555l44.7508 -15.926c10.9913,18.9319 23.0008,37.1977 35.9599,54.7205l-32.1 17.7969c-12.3602,6.87284 -16.8071,22.4646 -9.93544,34.8236 6.87166,12.3602 22.4646,16.8095 34.8236,9.93662l39.9319 -22.1386c8.01615,9.06142 16.3063,17.8736 24.8575,26.426 10.9606,10.9595 22.3547,21.4843 34.1457,31.5591l-20.5465 20.2477c-10.0878,9.92127 -10.2224,26.1414 -0.302362,36.2292 9.92127,10.089 26.1414,10.2224 36.2292,0.302362l25.3169 -24.9484c22.6146,16.1457 46.4126,30.7382 71.2406,43.6205l-14.7662 32.2925c-5.87481,12.8587 -0.21378,28.0465 12.6449,33.9201 12.8575,5.87363 28.0453,0.212599 33.9201,-12.6449l14.6291 -31.989c18.9614,7.82835 38.4201,14.6953 58.3146,20.5465l-11.7272 39.0496c-4.04646,13.5803 3.6815,27.8681 17.2606,31.9146 13.5791,4.0441 27.8681,-3.68268 31.9134,-17.2618l12.4264 -41.3764c15.7453,3.16654 31.7173,5.70709 47.8867,7.59568l-6.72048 22.3831c-4.04646,13.5791 3.68032,27.8681 17.2595,31.9134 13.5803,4.04528 27.8693,-3.68268 31.9146,-17.2618l9.98623 -33.2504c5.58426,0.154725 11.1862,0.232677 16.8083,0.232677 16.9394,0 34.6146,-0.829134 52.9689,-2.48386 7.94292,-0.715749 15.8551,-1.58858 23.7295,-2.61851 0.252756,-6.83268 0.375591,-13.6961 0.375591,-20.5878 0,-10.402 -0.281103,-20.739 -0.84567,-31.0016 -9.2256,1.31929 -18.4559,2.3941 -27.6756,3.22559 -15.3827,1.38662 -31.5839,2.08229 -48.5528,2.08229l-1.44567 -0.00236221 12.2528 -40.8c4.04646,-13.5791 -3.6815,-27.8681 -17.2606,-31.9134 -13.578,-4.04646 -27.8681,3.6815 -31.9146,17.2606l-15.8445 52.7634c-16.2461,-1.62165 -32.2807,-3.96378 -48.0685,-6.99449l10.3228 -34.3701c4.04528,-13.5791 -3.6815,-27.8693 -17.2606,-31.9134 -13.5791,-4.04646 -27.8693,3.68032 -31.9134,17.2595l-11.0917 36.9296c-17.6268,-5.17559 -34.878,-11.2252 -51.7063,-18.1004l18.3461 -40.1185c5.87481,-12.8587 0.21378,-28.0465 -12.6437,-33.9213 -12.8599,-5.87363 -28.0465,-0.212599 -33.9213,12.6461l-18.1973 39.7937c-19.1894,-10.0689 -37.6985,-21.2599 -55.4374,-33.4855l30.5906 -30.1465c10.0866,-9.92127 10.2213,-26.1414 0.301181,-36.2292 -9.92127,-10.0878 -26.1414,-10.2224 -36.2292,-0.302362l-35.8264 35.3055c-11.9717,-10.0606 -23.5051,-20.6303 -34.5555,-31.6807 -5.12244,-5.12244 -10.1421,-10.35 -15.0555,-15.6744l28.2685 -15.6732c12.3602,-6.87284 16.8083,-22.4646 9.93544,-34.8236 -6.87166,-12.3602 -22.4646,-16.8083 -34.8236,-9.93662l-36.8729 20.4437c-11.4626,-15.1063 -22.1469,-30.8351 -31.9937,-47.126l29.0847 -10.3524c13.3571,-4.71024 20.3658,-19.3595 15.6555,-32.7154 -4.71024,-13.3583 -19.3606,-20.3681 -32.7166,-15.6567l-36.7016 13.0606c-6.66497,-13.8957 -12.7524,-28.1221 -18.2315,-42.6485l26.3173 -5.48268c13.8567,-2.88071 22.7528,-16.4504 19.8721,-30.3059 -2.88307,-13.8567 -16.4528,-22.7528 -30.3083,-19.8721l-31.7374 6.61064c-3.06969,-11.335 -5.77678,-22.8177 -8.11182,-34.4362l44.6729 -9.30591z"/>
  <path class="fil4" d="M1029.8 1483.55c-14.0835,2.92796 -23.126,16.7209 -20.1969,30.8032 2.92914,14.0835 16.7221,23.126 30.8055,20.1969l42.6307 -8.87953c1.86378,18.0024 2.85827,36.2634 2.93504,54.7394 17.6303,-1.58268 35.028,-3.96614 52.1599,-7.12323 -0.305906,-19.6843 -1.56142,-39.137 -3.71811,-58.3182l36.0721 -7.51418c14.0847,-2.92914 23.126,-16.7209 20.1969,-30.8044 -2.92796,-14.0823 -16.7197,-23.1248 -30.8032,-20.1969l-33.5362 6.98504c-2.37874,-11.8016 -5.10945,-23.4768 -8.16969,-35.0162l46.6075 -9.70867c14.0823,-2.92914 23.1248,-16.7209 20.1969,-30.8044 -2.92914,-14.0835 -16.7209,-23.126 -30.8055,-20.1969l-51.6201 10.7516c-6.18544,-17.1012 -13.1256,-33.841 -20.778,-50.1804l38.4154 -13.6725c13.5756,-4.78819 20.7012,-19.6784 15.9118,-33.254 -4.78819,-13.5756 -19.6772,-20.7012 -33.254,-15.9118l-45.4831 16.187c-11.1721,-19.2414 -23.3799,-37.8071 -36.5504,-55.6182l32.6268 -18.0886c12.5622,-6.98504 17.0823,-22.8331 10.0973,-35.3953 -6.98386,-12.5622 -22.8319,-17.0835 -35.3941,-10.0984l-40.5874 22.5012c-8.14725,-9.21024 -16.5721,-18.1665 -25.265,-26.8583 -11.1402,-11.1402 -22.7209,-21.8374 -34.7055,-32.0776l20.8843 -20.5795c10.2532,-10.0843 10.3902,-26.5713 0.307087,-36.8233 -10.0843,-10.2543 -26.5713,-10.3902 -36.8244,-0.307087l-25.7315 25.3571c-22.9855,-16.4102 -47.1744,-31.2425 -72.4099,-44.3363l15.0095 -32.8217c5.97048,-13.0701 0.216142,-28.5059 -12.8528,-34.4764 -13.0689,-5.97048 -28.5047,-0.216142 -34.4764,12.8528l-14.8689 32.5134c-19.2721,-7.95709 -39.0508,-14.9362 -59.2701,-20.8843l11.9185 -39.6898c4.1126,-13.8024 -3.74174,-28.3252 -17.5429,-32.4378 -13.8024,-4.11142 -28.3264,3.74292 -32.4378,17.5453l-12.6295 42.0544c-16.0039,-3.21851 -32.237,-5.8004 -48.6721,-7.71969l6.8315 -22.7504c4.11142,-13.8024 -3.74174,-28.3252 -17.5441,-32.4366 -13.8024,-4.11142 -28.3264,3.74174 -32.4366,17.5441l-10.1504 33.7973c-5.67638,-0.158268 -11.3705,-0.238583 -17.0847,-0.238583 -17.2169,0 -35.1827,0.843308 -53.837,2.5252 -8.07284,0.72756 -16.115,1.61575 -24.1193,2.66221 -0.256299,6.94371 -0.381496,13.9205 -0.381496,20.9256 0,10.5732 0.285827,21.0792 0.858662,31.5107 9.37678,-1.34173 18.7595,-2.43425 28.1303,-3.27874 15.6354,-1.41024 32.1024,-2.11772 49.3489,-2.11772l1.47047 0.00236221 -12.4547 41.4697c-4.1126,13.8012 3.74292,28.3252 17.5441,32.4366 13.8012,4.1126 28.3252,-3.74174 32.4378,-17.5429l16.1055 -53.6292c16.5118,1.64764 32.8087,4.02874 48.8552,7.10906l-10.4917 34.9335c-4.11142,13.8024 3.74174,28.3264 17.5441,32.4378 13.8024,4.11142 28.3264,-3.74174 32.4366,-17.5441l11.2736 -37.5343c17.9162,5.26063 35.4508,11.4083 52.5544,18.398l-18.6473 40.7752c-5.97166,13.0701 -0.217323,28.5071 12.8516,34.4776 13.0701,5.97048 28.5071,0.217323 34.4776,-12.8528l18.4961 -40.4469c19.5036,10.2343 38.3162,21.6095 56.3469,34.0347l-31.0925 30.6414c-10.2532,10.0831 -10.3902,26.5701 -0.305906,36.8233 10.0831,10.2532 26.5701,10.3902 36.8233,0.307087l36.4134 -35.8843c12.1689,10.226 23.8902,20.9681 35.1225,32.2004 5.2063,5.2063 10.3087,10.5189 15.3024,15.9307l-28.7327 15.9307c-12.5622,6.98504 -17.0835,22.8319 -10.0984,35.3953 6.98504,12.5622 22.8331,17.0835 35.3953,10.0984l37.4776 -20.778c11.6504,15.3532 22.5106,31.3406 32.5181,47.8985l-29.5618 10.5224c-13.5756,4.78701 -20.7,19.6772 -15.9106,33.2528 4.78701,13.5756 19.6772,20.7012 33.2516,15.9118l37.304 -13.2744c6.77363,14.1236 12.9614,28.5839 18.5303,43.3477l-26.7496 5.57245c-14.0823,2.92914 -23.1248,16.7209 -20.1969,30.8044 2.93032,14.0823 16.7221,23.1248 30.8055,20.1969l32.2571 -6.71812c3.12047,11.5193 5.87245,23.1921 8.24528,35.0008l-45.4052 9.45827z"/>
 </g>
</svg>
